<svg width="80" height="77" viewBox="0 0 80 77" fill="none" xmlns="http://www.w3.org/2000/svg">
<path d="M10 6C10 2.68629 12.6863 0 16 0H74C77.3137 0 80 2.68629 80 6V64C80 67.3137 77.3137 70 74 70H16C12.6863 70 10 67.3137 10 64V6Z" fill="#EFF6FF"/>
<path d="M0 13C0 9.68629 2.68629 7 6 7H64C67.3137 7 70 9.68629 70 13V71C70 74.3137 67.3137 77 64 77H6C2.68629 77 0 74.3137 0 71V13Z" fill="#DC9D53"/>
<path fill-rule="evenodd" clip-rule="evenodd" d="M35 58C26.1634 58 19 50.8366 19 42C19 33.1634 26.1634 26 35 26C43.8366 26 51 33.1634 51 42C51 50.8366 43.8366 58 35 58ZM35 54.8C42.0692 54.8 47.8 49.0692 47.8 42C47.8 34.9308 42.0692 29.2 35 29.2C27.9308 29.2 22.2 34.9308 22.2 42C22.2 49.0692 27.9308 54.8 35 54.8ZM33.4 42.944L31.32 40.88V40.864C30.6814 40.3245 29.7351 40.3677 29.1481 40.963C28.5612 41.5583 28.5315 42.5051 29.08 43.136L32.28 46.336C32.9021 46.9458 33.8978 46.9458 34.52 46.336L40.92 39.936C41.4685 39.3051 41.4388 38.3583 40.8518 37.763C40.2649 37.1677 39.3186 37.1245 38.68 37.664L33.4 42.944Z" fill="white"/>
</svg>
