<svg width="80" height="77" viewBox="0 0 80 77" fill="none" xmlns="http://www.w3.org/2000/svg">
<path d="M10 6C10 2.68629 12.6863 0 16 0H74C77.3137 0 80 2.68629 80 6V64C80 67.3137 77.3137 70 74 70H16C12.6863 70 10 67.3137 10 64V6Z" fill="#EFF6FF"/>
<path d="M0 13C0 9.68629 2.68629 7 6 7H64C67.3137 7 70 9.68629 70 13V71C70 74.3137 67.3137 77 64 77H6C2.68629 77 0 74.3137 0 71V13Z" fill="#DC9D53"/>
<path d="M29.0001 50.3124C28.6823 50.3127 28.3752 50.1972 28.1364 49.9874L20.1364 42.9874C19.9957 42.8642 19.8829 42.7124 19.8057 42.5421C19.7284 42.3718 19.6885 42.1869 19.6885 41.9999C19.6885 41.8129 19.7284 41.6281 19.8057 41.4577C19.8829 41.2874 19.9957 41.1356 20.1364 41.0124L28.1364 34.0124C28.3984 33.7832 28.7407 33.6674 29.088 33.6905C29.4354 33.7137 29.7593 33.8739 29.9886 34.1358C30.2178 34.3978 30.3336 34.7402 30.3105 35.0875C30.2873 35.4349 30.1271 35.7588 29.8651 35.988L22.9933 41.9999L29.8645 48.0118C30.0656 48.1876 30.2083 48.4206 30.2735 48.6797C30.3387 48.9387 30.3232 49.2115 30.2293 49.4615C30.1353 49.7116 29.9673 49.927 29.7477 50.0791C29.5281 50.2311 29.2673 50.3125 29.0001 50.3124Z" fill="white"/>
<path d="M40.9999 50.3124C40.7327 50.3126 40.4719 50.2313 40.2521 50.0793C40.0324 49.9273 39.8643 49.7119 39.7703 49.4618C39.6762 49.2117 39.6608 48.9389 39.7259 48.6798C39.7911 48.4207 39.9338 48.1876 40.1349 48.0118L47.0068 41.9999L40.1355 35.988C39.8736 35.7588 39.7134 35.4349 39.6902 35.0875C39.6671 34.7402 39.7829 34.3978 40.0121 34.1358C40.2414 33.8739 40.5653 33.7137 40.9126 33.6905C41.26 33.6674 41.6023 33.7832 41.8643 34.0124L49.8643 41.0124C50.005 41.1356 50.1178 41.2874 50.195 41.4577C50.2723 41.6281 50.3122 41.8129 50.3122 41.9999C50.3122 42.1869 50.2723 42.3718 50.195 42.5421C50.1178 42.7124 50.005 42.8642 49.8643 42.9874L41.8643 49.9874C41.6254 50.1974 41.318 50.313 40.9999 50.3124Z" fill="white"/>
<path d="M32 53.3129C31.7956 53.3129 31.594 53.2651 31.4113 53.1734C31.2287 53.0817 31.07 52.9486 30.9478 52.7847C30.8257 52.6208 30.7435 52.4307 30.7079 52.2294C30.6722 52.0281 30.6841 51.8213 30.7425 51.6254L36.7425 31.6254C36.7877 31.4557 36.8665 31.2968 36.9742 31.1581C37.0819 31.0194 37.2164 30.9037 37.3697 30.8179C37.5229 30.7321 37.6918 30.678 37.8664 30.6587C38.0409 30.6393 38.2176 30.6553 38.3859 30.7055C38.5542 30.7557 38.7107 30.8391 38.8462 30.9509C38.9817 31.0627 39.0933 31.2006 39.1745 31.3563C39.2557 31.512 39.3049 31.6825 39.319 31.8575C39.3331 32.0326 39.312 32.2087 39.2568 32.3754L33.2568 52.3754C33.1761 52.6462 33.0102 52.8836 32.7838 53.0525C32.5573 53.2214 32.2825 53.3127 32 53.3129Z" fill="white"/>
</svg>
