<svg width="80" height="77" viewBox="0 0 80 77" fill="none" xmlns="http://www.w3.org/2000/svg">
<path d="M10 6C10 2.68629 12.6863 0 16 0H74C77.3137 0 80 2.68629 80 6V64C80 67.3137 77.3137 70 74 70H16C12.6863 70 10 67.3137 10 64V6Z" fill="#EFF6FF"/>
<path d="M0 13C0 9.68629 2.68629 7 6 7H64C67.3137 7 70 9.68629 70 13V71C70 74.3137 67.3137 77 64 77H6C2.68629 77 0 74.3137 0 71V13Z" fill="#DC9D53"/>
<path d="M47 30H23C21.8954 30 21 30.8954 21 32V48C21 49.1046 21.8954 50 23 50H47C48.1046 50 49 49.1046 49 48V32C49 30.8954 48.1046 30 47 30Z" stroke="white" stroke-linejoin="round"/>
<path d="M38 54L37.5 50H32.5L32 54H38Z" fill="white" stroke="white" stroke-linejoin="round"/>
<path d="M42 54H28" stroke="white" stroke-linejoin="round"/>
<path d="M21 45V48C21.0015 48.53 21.2127 49.0378 21.5874 49.4126C21.9622 49.7873 22.47 49.9985 23 50H47C47.53 49.9985 48.0378 49.7873 48.4126 49.4126C48.7873 49.0378 48.9985 48.53 49 48V45H21ZM35 49C34.8022 49 34.6089 48.9414 34.4444 48.8315C34.28 48.7216 34.1518 48.5654 34.0761 48.3827C34.0004 48.2 33.9806 47.9989 34.0192 47.8049C34.0578 47.6109 34.153 47.4327 34.2929 47.2929C34.4327 47.153 34.6109 47.0578 34.8049 47.0192C34.9989 46.9806 35.2 47.0004 35.3827 47.0761C35.5654 47.1518 35.7216 47.28 35.8315 47.4444C35.9414 47.6089 36 47.8022 36 48C36 48.2652 35.8946 48.5196 35.7071 48.7071C35.5196 48.8946 35.2652 49 35 49Z" fill="white"/>
</svg>
