<svg width="24" height="25" viewBox="0 0 24 25" fill="none" xmlns="http://www.w3.org/2000/svg">
<path d="M23.25 5.6327C22.406 5.99943 21.513 6.24103 20.5992 6.34989C21.5595 5.78756 22.2817 4.89421 22.6303 3.83739C21.7224 4.36829 20.7307 4.74079 19.6978 4.93895C19.2629 4.4831 18.7397 4.12047 18.1603 3.87308C17.5808 3.62569 16.9571 3.49872 16.327 3.49989C13.7761 3.49989 11.7117 5.53426 11.7117 8.04207C11.7099 8.3909 11.7499 8.73869 11.8308 9.07801C10.0016 8.99226 8.2104 8.52563 6.57187 7.70797C4.93333 6.89032 3.48351 5.73965 2.31516 4.32957C1.90527 5.02057 1.6885 5.80897 1.6875 6.61239C1.6875 8.18739 2.50922 9.57957 3.75 10.3952C3.01487 10.3778 2.29481 10.1832 1.65094 9.82801V9.88426C1.65094 12.0874 3.24469 13.9202 5.35406 14.3374C4.9574 14.4431 4.54864 14.4967 4.13812 14.4968C3.84683 14.4973 3.5562 14.469 3.27047 14.4124C3.85687 16.2171 5.56359 17.5296 7.58531 17.5671C5.94252 18.8331 3.9256 19.5174 1.85156 19.5124C1.48341 19.5118 1.11561 19.4899 0.75 19.4468C2.85993 20.7941 5.31255 21.5067 7.81594 21.4999C16.3172 21.4999 20.9616 14.5764 20.9616 8.57176C20.9616 8.37489 20.9564 8.17801 20.947 7.98582C21.8485 7.3446 22.6283 6.54775 23.25 5.6327Z" fill="#4B5563"/>
</svg>
