<svg width="24" height="25" viewBox="0 0 24 25" fill="none" xmlns="http://www.w3.org/2000/svg">
<path d="M12 2C6.20156 2 1.5 6.82344 1.5 12.7672C1.5 17.525 4.50937 21.5562 8.68125 22.9812C8.73977 22.994 8.79949 23.0002 8.85938 23C9.24844 23 9.39844 22.7141 9.39844 22.4656C9.39844 22.2078 9.38906 21.5328 9.38437 20.6328C9.03705 20.7142 8.68173 20.7567 8.325 20.7594C6.30469 20.7594 5.84531 19.1891 5.84531 19.1891C5.36719 17.9469 4.67813 17.6141 4.67813 17.6141C3.76406 16.9719 4.67344 16.9531 4.74375 16.9531H4.74844C5.80313 17.0469 6.35625 18.0687 6.35625 18.0687C6.88125 18.9875 7.58437 19.2453 8.2125 19.2453C8.62783 19.237 9.03673 19.1412 9.4125 18.9641C9.50625 18.2703 9.77812 17.7969 10.0781 17.525C7.74844 17.2531 5.29688 16.3297 5.29688 12.2047C5.29688 11.0281 5.70469 10.0672 6.375 9.31719C6.26719 9.04531 5.90625 7.94844 6.47812 6.46719C6.55483 6.44883 6.63367 6.44095 6.7125 6.44375C7.09219 6.44375 7.95 6.58906 9.36563 7.57344C11.0857 7.09218 12.9049 7.09218 14.625 7.57344C16.0406 6.58906 16.8984 6.44375 17.2781 6.44375C17.357 6.44095 17.4358 6.44883 17.5125 6.46719C18.0844 7.94844 17.7234 9.04531 17.6156 9.31719C18.2859 10.0719 18.6937 11.0328 18.6937 12.2047C18.6937 16.3391 16.2375 17.2484 13.8984 17.5156C14.2734 17.8484 14.6109 18.5047 14.6109 19.5078C14.6109 20.9469 14.5969 22.1094 14.5969 22.4609C14.5969 22.7141 14.7422 23 15.1312 23C15.1942 23.0003 15.2571 22.994 15.3187 22.9812C19.4953 21.5562 22.5 17.5203 22.5 12.7672C22.5 6.82344 17.7984 2 12 2Z" fill="#4B5563"/>
</svg>
