<svg width="135" height="26" viewBox="0 0 135 26" fill="none" xmlns="http://www.w3.org/2000/svg">
<path d="M12.3071 0.499939C13.4479 0.499939 14.5017 0.587313 15.4687 0.849436C16.4356 1.02418 17.2287 1.3846 17.9349 1.82148C18.6411 2.25835 19.1626 2.88089 19.5211 3.67818C19.8687 4.47547 20.0534 5.44751 20.0534 6.50692C20.0534 7.74109 19.7927 8.8005 19.1734 9.59779C18.6411 10.3951 17.7719 11.105 16.7072 11.6292C18.2065 12.0661 19.3473 12.8634 20.0426 13.9228C20.7379 14.9822 21.1833 16.3038 21.1833 17.811C21.1833 19.0451 20.9226 20.1046 20.4772 20.9892C20.0426 21.8739 19.3364 22.6712 18.5433 23.1954C17.7502 23.7306 16.7833 24.1675 15.7294 24.4296C14.6756 24.6917 13.6217 24.8665 12.5679 24.8665L0.790894 24.8883V0.499939H12.3071ZM11.601 10.3951C12.5679 10.3951 13.361 10.133 13.9694 9.68517C14.5778 9.23737 14.8494 8.451 14.8494 7.47896C14.8494 6.9438 14.7625 6.41955 14.5887 6.07005C14.4148 5.72056 14.1541 5.44751 13.7956 5.18539C13.4479 5.01064 13.0894 4.83589 12.6548 4.74852C12.2202 4.66114 11.7748 4.66114 11.2533 4.66114H6.1579V10.406C6.1579 10.3951 11.601 10.3951 11.601 10.3951ZM11.8617 20.8254C12.3941 20.8254 12.9155 20.738 13.361 20.6506C13.7956 20.5633 14.241 20.3885 14.5887 20.1155C14.9363 19.8424 15.2079 19.5803 15.4687 19.1434C15.6425 18.7066 15.8163 18.1714 15.8163 17.5489C15.8163 16.3147 15.4687 15.43 14.7625 14.8075C14.0563 14.2723 13.0894 14.0102 11.9486 14.0102H6.1579V20.8145H11.8617V20.8254ZM28.8319 20.7379C29.538 21.4479 30.5919 21.7974 31.9934 21.7974C32.9603 21.7974 33.8403 21.5352 34.5465 21.0874C35.2527 20.5523 35.6873 20.028 35.8611 19.4929H40.1634C39.4572 21.6117 38.4034 23.1189 37.0019 24.0909C35.6004 24.9756 33.9273 25.4998 31.9065 25.4998C30.505 25.4998 29.2664 25.2377 28.1257 24.7899C26.9849 24.3531 26.1049 23.7305 25.3118 22.8458C24.5187 22.0486 23.9103 21.0765 23.5518 19.9297C23.1172 18.7829 22.9325 17.5488 22.9325 16.1289C22.9325 14.8074 23.1063 13.5623 23.5518 12.4155C23.9972 11.2688 24.6056 10.2967 25.3987 9.41205C26.1918 8.61476 27.1587 7.90484 28.2126 7.46797C29.3533 7.0311 30.4941 6.75805 31.9065 6.75805C33.4058 6.75805 34.7204 7.02018 35.8611 7.64272C37.0019 8.26526 37.8819 8.96425 38.5881 10.0237C39.2943 10.9957 39.8157 12.1425 40.1743 13.3767C40.3481 14.6108 40.435 15.8559 40.3481 17.2648H27.6042C27.6042 18.7065 28.1257 20.028 28.8319 20.7379ZM34.3727 11.4544C33.7534 10.8319 32.7865 10.4824 31.6457 10.4824C30.8526 10.4824 30.2442 10.6571 29.7119 10.9193C29.1795 11.1814 28.8319 11.5418 28.4842 11.8913C28.1365 12.2408 27.9518 12.6886 27.8649 13.1255C27.778 13.5623 27.6911 13.9227 27.6911 14.2722H35.6004C35.4265 12.9616 34.9811 12.077 34.3727 11.4544ZM26.6373 2.18182H36.4804V4.56277H26.6373V2.18182ZM47.2035 0.499939V9.68517H47.2904C47.9097 8.62575 48.6919 7.91584 49.6589 7.47896C50.6258 7.04209 51.5058 6.76905 52.4728 6.76905C53.7873 6.76905 54.8412 6.9438 55.6343 7.30421C56.4274 7.65371 57.1336 8.18888 57.5681 8.81142C58.0027 9.43396 58.3612 10.2203 58.5351 11.105C58.7089 11.9897 58.7958 12.9617 58.7958 14.1085V24.9757H53.9612V14.9932C53.9612 13.4859 53.7004 12.4265 53.255 11.7275C52.8095 11.0285 52.0382 10.6572 50.8974 10.6572C49.5828 10.6572 48.6159 11.0941 48.0835 11.804C47.4643 12.6013 47.2035 13.9228 47.2035 15.6922V24.9757H42.3689V0.499939H47.2035ZM62.3267 9.87096C62.8591 9.07367 63.4675 8.54942 64.2606 8.01425C65.0537 7.57738 65.9337 7.21696 66.9007 7.04221C67.8676 6.86746 68.8345 6.78009 69.8014 6.78009C70.6815 6.78009 71.5615 6.86746 72.5284 6.95484C73.4084 7.04221 74.2884 7.30434 74.9946 7.66476C75.7877 8.01425 76.3092 8.54942 76.8416 9.17196C77.2761 9.7945 77.5477 10.6792 77.5477 11.7386V21.0221C77.5477 21.8194 77.6347 22.6167 77.7216 23.3157C77.8085 24.0256 78.0692 24.6372 78.3408 24.9976H73.4193C73.2455 24.8229 73.1585 24.4625 73.0716 24.2003C72.9847 23.9382 72.9847 23.5778 72.9847 23.3157C72.1916 24.113 71.3116 24.6372 70.2577 24.9976C69.2039 25.3471 68.1501 25.4345 67.0962 25.4345C66.2162 25.4345 65.51 25.3471 64.7278 25.085C64.0216 24.9103 63.4132 24.5498 62.7939 24.113C62.2616 23.6761 61.827 23.1409 61.4793 22.431C61.2186 21.7211 61.0447 21.0221 61.0447 20.0501C61.0447 19.078 61.2186 18.1934 61.5771 17.5708C61.9248 16.9483 62.3702 16.424 62.8917 15.9762C63.424 15.6267 64.1194 15.2663 64.8256 15.0916C65.5317 14.9168 66.2271 14.7421 67.0202 14.6547C67.7263 14.5673 68.4217 14.48 69.1278 14.3926C69.834 14.3052 70.4424 14.2178 70.9748 14.1305C71.5071 13.9557 71.9417 13.781 72.2894 13.5079C72.637 13.2458 72.724 12.8854 72.724 12.3611C72.724 11.826 72.637 11.3891 72.4632 11.127C72.2894 10.8648 72.0286 10.5918 71.757 10.417C71.4963 10.2423 71.1378 10.1549 70.7901 10.0675C70.4424 9.98017 69.997 9.98018 69.5624 9.98018C68.5955 9.98018 67.8893 10.1549 67.3678 10.6027C66.8355 11.0396 66.4878 11.7495 66.4009 12.6342H61.5662C61.5336 11.542 61.8813 10.57 62.3267 9.87096ZM71.9091 16.7626C71.6484 16.85 71.2899 16.9374 70.9422 17.0247C70.5945 17.1121 70.236 17.1121 69.8014 17.1995C69.4538 17.2869 69.0083 17.2869 68.6607 17.3742C68.313 17.4616 67.9545 17.549 67.6068 17.6363C67.2592 17.7237 66.9007 17.8985 66.7268 18.0732C66.4661 18.248 66.2922 18.5101 66.1076 18.7831C65.8468 19.1326 65.8468 19.4931 65.8468 19.9299C65.8468 20.3668 65.9337 20.7272 66.1076 20.9893C66.2814 21.2515 66.4552 21.5245 66.7268 21.6993C66.9876 21.874 67.3461 21.9614 67.6937 22.0488C68.0414 22.1361 68.3999 22.1361 68.8345 22.1361C69.8014 22.1361 70.5076 21.9614 71.0291 21.6993C71.5615 21.3498 71.9091 20.9893 72.1699 20.5525C72.4306 20.1156 72.6044 19.6678 72.6044 19.2309C72.6914 18.7941 72.6914 18.4336 72.6914 18.1715V16.3148C72.4306 16.4896 72.1699 16.6752 71.9091 16.7626ZM84.8269 7.21696V9.69621H84.9138C85.5331 8.63679 86.3153 7.92688 87.2822 7.49001C88.2492 7.05314 89.303 6.78009 90.2699 6.78009C91.5845 6.78009 92.6384 6.95484 93.4315 7.31526C94.3115 7.66476 94.9308 8.19992 95.3653 8.82246C95.7999 9.44501 96.1584 10.2314 96.4192 11.116C96.593 12.0007 96.6799 12.9727 96.6799 14.1195V24.9867H91.8453V15.0042C91.8453 13.497 91.5845 12.4376 91.1391 11.7386C90.7045 11.0287 89.9114 10.5918 88.6729 10.5918C87.3583 10.5918 86.3913 11.127 85.7721 11.9133C85.1528 12.7106 84.8921 14.0322 84.8921 15.8015V25.085H80.0574V7.21696C80.0791 7.21696 84.8269 7.21696 84.8269 7.21696ZM107.512 10.3951C106.719 10.3951 106.11 10.5699 105.578 10.9303C105.045 11.2798 104.611 11.7276 104.263 12.3392C103.916 12.8744 103.731 13.486 103.557 14.1959C103.383 14.9058 103.383 15.5175 103.383 16.2274C103.383 16.8499 103.47 17.5489 103.557 18.1715C103.731 18.8814 103.905 19.4056 104.263 19.9408C104.611 20.4759 104.969 20.9128 105.491 21.2623C106.023 21.6118 106.632 21.7975 107.425 21.7975C108.566 21.7975 109.446 21.448 110.152 20.8254C110.771 20.2029 111.206 19.3182 111.292 18.1715H115.953C115.606 20.5524 114.726 22.3217 113.226 23.5668C111.727 24.801 109.793 25.4235 107.425 25.4235C106.11 25.4235 104.872 25.1614 103.818 24.7136C102.677 24.2767 101.797 23.6542 101.004 22.8569C100.211 22.0596 99.6024 21.0876 99.157 20.0282C98.7224 18.8814 98.5377 17.7346 98.5377 16.4021C98.5377 14.9932 98.7115 13.7481 99.157 12.6013C99.5916 11.4546 100.124 10.3951 100.917 9.51047C101.71 8.62581 102.677 8.00327 103.731 7.47902C104.872 7.04215 106.099 6.7691 107.512 6.7691C108.566 6.7691 109.532 6.94385 110.499 7.20598C111.466 7.4681 112.346 7.91589 113.053 8.44014C113.846 8.9753 114.454 9.6743 114.899 10.559C115.334 11.3563 115.606 12.4157 115.693 13.5625H110.945C110.76 11.4546 109.619 10.3951 107.512 10.3951ZM123.243 20.7381C123.95 21.448 125.09 21.7975 126.405 21.7975C127.372 21.7975 128.252 21.5354 128.958 21.0876C129.664 20.5525 130.099 20.0282 130.273 19.493H134.488C133.782 21.6119 132.728 23.1191 131.326 24.0911C129.925 24.9758 128.252 25.5 126.231 25.5C124.83 25.5 123.591 25.2379 122.45 24.7901C121.309 24.3532 120.429 23.7307 119.636 22.846C118.843 22.0487 118.235 21.0767 117.876 19.9299C117.442 18.7831 117.257 17.549 117.257 16.1291C117.257 14.8076 117.431 13.5625 117.876 12.4157C118.311 11.2689 118.93 10.2969 119.723 9.41223C120.516 8.61494 121.483 7.90503 122.537 7.46816C123.678 7.03128 124.906 6.75824 126.231 6.75824C127.73 6.75824 129.045 7.02036 130.099 7.6429C131.239 8.26545 132.12 8.96444 132.826 10.0239C133.532 10.9959 134.053 12.1427 134.412 13.3768C134.76 14.611 134.846 15.9435 134.76 17.3524H122.016C122.016 18.7067 122.537 20.0282 123.243 20.7381ZM128.871 11.4546C128.252 10.8321 127.285 10.4826 126.144 10.4826C125.351 10.4826 124.743 10.6573 124.21 10.9194C123.678 11.1816 123.243 11.542 122.983 11.8915C122.722 12.241 122.45 12.6888 122.363 13.1256C122.276 13.5625 122.189 13.9229 122.189 14.2724H130.099C129.838 12.9618 129.393 12.0772 128.871 11.4546Z" fill="#E8E8E8"/>
<path d="M12.3071 0.499939C13.4479 0.499939 14.5017 0.587313 15.4687 0.849436C16.4356 1.02418 17.2287 1.3846 17.9349 1.82148C18.6411 2.25835 19.1626 2.88089 19.5211 3.67818C19.8687 4.47547 20.0534 5.44751 20.0534 6.50692C20.0534 7.74109 19.7927 8.8005 19.1734 9.59779C18.6411 10.3951 17.7719 11.105 16.7072 11.6292C18.2065 12.0661 19.3473 12.8634 20.0426 13.9228C20.7379 14.9822 21.1833 16.3038 21.1833 17.811C21.1833 19.0451 20.9226 20.1046 20.4772 20.9892C20.0426 21.8739 19.3364 22.6712 18.5433 23.1954C17.7502 23.7306 16.7833 24.1675 15.7294 24.4296C14.6756 24.6917 13.6217 24.8665 12.5679 24.8665L0.790894 24.8883V0.499939H12.3071ZM11.601 10.3951C12.5679 10.3951 13.361 10.133 13.9694 9.68517C14.5778 9.23737 14.8494 8.451 14.8494 7.47896C14.8494 6.9438 14.7625 6.41955 14.5887 6.07005C14.4148 5.72056 14.1541 5.44751 13.7956 5.18539C13.4479 5.01064 13.0894 4.83589 12.6548 4.74852C12.2202 4.66114 11.7748 4.66114 11.2533 4.66114H6.1579V10.406C6.1579 10.3951 11.601 10.3951 11.601 10.3951ZM11.8617 20.8254C12.3941 20.8254 12.9155 20.738 13.361 20.6506C13.7956 20.5633 14.241 20.3885 14.5887 20.1155C14.9363 19.8424 15.2079 19.5803 15.4687 19.1434C15.6425 18.7066 15.8163 18.1714 15.8163 17.5489C15.8163 16.3147 15.4687 15.43 14.7625 14.8075C14.0563 14.2723 13.0894 14.0102 11.9486 14.0102H6.1579V20.8145H11.8617V20.8254ZM28.8319 20.7379C29.538 21.4479 30.5919 21.7974 31.9934 21.7974C32.9603 21.7974 33.8403 21.5352 34.5465 21.0874C35.2527 20.5523 35.6873 20.028 35.8611 19.4929H40.1634C39.4572 21.6117 38.4034 23.1189 37.0019 24.0909C35.6004 24.9756 33.9273 25.4998 31.9065 25.4998C30.505 25.4998 29.2664 25.2377 28.1257 24.7899C26.9849 24.3531 26.1049 23.7305 25.3118 22.8458C24.5187 22.0486 23.9103 21.0765 23.5518 19.9297C23.1172 18.7829 22.9325 17.5488 22.9325 16.1289C22.9325 14.8074 23.1063 13.5623 23.5518 12.4155C23.9972 11.2688 24.6056 10.2967 25.3987 9.41205C26.1918 8.61476 27.1587 7.90484 28.2126 7.46797C29.3533 7.0311 30.4941 6.75805 31.9065 6.75805C33.4058 6.75805 34.7204 7.02018 35.8611 7.64272C37.0019 8.26526 37.8819 8.96425 38.5881 10.0237C39.2943 10.9957 39.8157 12.1425 40.1743 13.3767C40.3481 14.6108 40.435 15.8559 40.3481 17.2648H27.6042C27.6042 18.7065 28.1257 20.028 28.8319 20.7379ZM34.3727 11.4544C33.7534 10.8319 32.7865 10.4824 31.6457 10.4824C30.8526 10.4824 30.2442 10.6571 29.7119 10.9193C29.1795 11.1814 28.8319 11.5418 28.4842 11.8913C28.1365 12.2408 27.9518 12.6886 27.8649 13.1255C27.778 13.5623 27.6911 13.9227 27.6911 14.2722H35.6004C35.4265 12.9616 34.9811 12.077 34.3727 11.4544ZM26.6373 2.18182H36.4804V4.56277H26.6373V2.18182ZM47.2035 0.499939V9.68517H47.2904C47.9097 8.62575 48.6919 7.91584 49.6589 7.47896C50.6258 7.04209 51.5058 6.76905 52.4728 6.76905C53.7873 6.76905 54.8412 6.9438 55.6343 7.30421C56.4274 7.65371 57.1336 8.18888 57.5681 8.81142C58.0027 9.43396 58.3612 10.2203 58.5351 11.105C58.7089 11.9897 58.7958 12.9617 58.7958 14.1085V24.9757H53.9612V14.9932C53.9612 13.4859 53.7004 12.4265 53.255 11.7275C52.8095 11.0285 52.0382 10.6572 50.8974 10.6572C49.5828 10.6572 48.6159 11.0941 48.0835 11.804C47.4643 12.6013 47.2035 13.9228 47.2035 15.6922V24.9757H42.3689V0.499939H47.2035ZM62.3267 9.87096C62.8591 9.07367 63.4675 8.54942 64.2606 8.01425C65.0537 7.57738 65.9337 7.21696 66.9007 7.04221C67.8676 6.86746 68.8345 6.78009 69.8014 6.78009C70.6815 6.78009 71.5615 6.86746 72.5284 6.95484C73.4084 7.04221 74.2884 7.30434 74.9946 7.66476C75.7877 8.01425 76.3092 8.54942 76.8416 9.17196C77.2761 9.7945 77.5477 10.6792 77.5477 11.7386V21.0221C77.5477 21.8194 77.6347 22.6167 77.7216 23.3157C77.8085 24.0256 78.0692 24.6372 78.3408 24.9976H73.4193C73.2455 24.8229 73.1585 24.4625 73.0716 24.2003C72.9847 23.9382 72.9847 23.5778 72.9847 23.3157C72.1916 24.113 71.3116 24.6372 70.2577 24.9976C69.2039 25.3471 68.1501 25.4345 67.0962 25.4345C66.2162 25.4345 65.51 25.3471 64.7278 25.085C64.0216 24.9103 63.4132 24.5498 62.7939 24.113C62.2616 23.6761 61.827 23.1409 61.4793 22.431C61.2186 21.7211 61.0447 21.0221 61.0447 20.0501C61.0447 19.078 61.2186 18.1934 61.5771 17.5708C61.9248 16.9483 62.3702 16.424 62.8917 15.9762C63.424 15.6267 64.1194 15.2663 64.8256 15.0916C65.5317 14.9168 66.2271 14.7421 67.0202 14.6547C67.7263 14.5673 68.4217 14.48 69.1278 14.3926C69.834 14.3052 70.4424 14.2178 70.9748 14.1305C71.5071 13.9557 71.9417 13.781 72.2894 13.5079C72.637 13.2458 72.724 12.8854 72.724 12.3611C72.724 11.826 72.637 11.3891 72.4632 11.127C72.2894 10.8648 72.0286 10.5918 71.757 10.417C71.4963 10.2423 71.1378 10.1549 70.7901 10.0675C70.4424 9.98017 69.997 9.98018 69.5624 9.98018C68.5955 9.98018 67.8893 10.1549 67.3678 10.6027C66.8355 11.0396 66.4878 11.7495 66.4009 12.6342H61.5662C61.5336 11.542 61.8813 10.57 62.3267 9.87096ZM71.9091 16.7626C71.6484 16.85 71.2899 16.9374 70.9422 17.0247C70.5945 17.1121 70.236 17.1121 69.8014 17.1995C69.4538 17.2869 69.0083 17.2869 68.6607 17.3742C68.313 17.4616 67.9545 17.549 67.6068 17.6363C67.2592 17.7237 66.9007 17.8985 66.7268 18.0732C66.4661 18.248 66.2922 18.5101 66.1076 18.7831C65.8468 19.1326 65.8468 19.4931 65.8468 19.9299C65.8468 20.3668 65.9337 20.7272 66.1076 20.9893C66.2814 21.2515 66.4552 21.5245 66.7268 21.6993C66.9876 21.874 67.3461 21.9614 67.6937 22.0488C68.0414 22.1361 68.3999 22.1361 68.8345 22.1361C69.8014 22.1361 70.5076 21.9614 71.0291 21.6993C71.5615 21.3498 71.9091 20.9893 72.1699 20.5525C72.4306 20.1156 72.6044 19.6678 72.6044 19.2309C72.6914 18.7941 72.6914 18.4336 72.6914 18.1715V16.3148C72.4306 16.4896 72.1699 16.6752 71.9091 16.7626ZM84.8269 7.21696V9.69621H84.9138C85.5331 8.63679 86.3153 7.92688 87.2822 7.49001C88.2492 7.05314 89.303 6.78009 90.2699 6.78009C91.5845 6.78009 92.6384 6.95484 93.4315 7.31526C94.3115 7.66476 94.9308 8.19992 95.3653 8.82246C95.7999 9.44501 96.1584 10.2314 96.4192 11.116C96.593 12.0007 96.6799 12.9727 96.6799 14.1195V24.9867H91.8453V15.0042C91.8453 13.497 91.5845 12.4376 91.1391 11.7386C90.7045 11.0287 89.9114 10.5918 88.6729 10.5918C87.3583 10.5918 86.3913 11.127 85.7721 11.9133C85.1528 12.7106 84.8921 14.0322 84.8921 15.8015V25.085H80.0574V7.21696C80.0791 7.21696 84.8269 7.21696 84.8269 7.21696ZM107.512 10.3951C106.719 10.3951 106.11 10.5699 105.578 10.9303C105.045 11.2798 104.611 11.7276 104.263 12.3392C103.916 12.8744 103.731 13.486 103.557 14.1959C103.383 14.9058 103.383 15.5175 103.383 16.2274C103.383 16.8499 103.47 17.5489 103.557 18.1715C103.731 18.8814 103.905 19.4056 104.263 19.9408C104.611 20.4759 104.969 20.9128 105.491 21.2623C106.023 21.6118 106.632 21.7975 107.425 21.7975C108.566 21.7975 109.446 21.448 110.152 20.8254C110.771 20.2029 111.206 19.3182 111.292 18.1715H115.953C115.606 20.5524 114.726 22.3217 113.226 23.5668C111.727 24.801 109.793 25.4235 107.425 25.4235C106.11 25.4235 104.872 25.1614 103.818 24.7136C102.677 24.2767 101.797 23.6542 101.004 22.8569C100.211 22.0596 99.6024 21.0876 99.157 20.0282C98.7224 18.8814 98.5377 17.7346 98.5377 16.4021C98.5377 14.9932 98.7115 13.7481 99.157 12.6013C99.5916 11.4546 100.124 10.3951 100.917 9.51047C101.71 8.62581 102.677 8.00327 103.731 7.47902C104.872 7.04215 106.099 6.7691 107.512 6.7691C108.566 6.7691 109.532 6.94385 110.499 7.20598C111.466 7.4681 112.346 7.91589 113.053 8.44014C113.846 8.9753 114.454 9.6743 114.899 10.559C115.334 11.3563 115.606 12.4157 115.693 13.5625H110.945C110.76 11.4546 109.619 10.3951 107.512 10.3951ZM123.243 20.7381C123.95 21.448 125.09 21.7975 126.405 21.7975C127.372 21.7975 128.252 21.5354 128.958 21.0876C129.664 20.5525 130.099 20.0282 130.273 19.493H134.488C133.782 21.6119 132.728 23.1191 131.326 24.0911C129.925 24.9758 128.252 25.5 126.231 25.5C124.83 25.5 123.591 25.2379 122.45 24.7901C121.309 24.3532 120.429 23.7307 119.636 22.846C118.843 22.0487 118.235 21.0767 117.876 19.9299C117.442 18.7831 117.257 17.549 117.257 16.1291C117.257 14.8076 117.431 13.5625 117.876 12.4157C118.311 11.2689 118.93 10.2969 119.723 9.41223C120.516 8.61494 121.483 7.90503 122.537 7.46816C123.678 7.03128 124.906 6.75824 126.231 6.75824C127.73 6.75824 129.045 7.02036 130.099 7.6429C131.239 8.26545 132.12 8.96444 132.826 10.0239C133.532 10.9959 134.053 12.1427 134.412 13.3768C134.76 14.611 134.846 15.9435 134.76 17.3524H122.016C122.016 18.7067 122.537 20.0282 123.243 20.7381ZM128.871 11.4546C128.252 10.8321 127.285 10.4826 126.144 10.4826C125.351 10.4826 124.743 10.6573 124.21 10.9194C123.678 11.1816 123.243 11.542 122.983 11.8915C122.722 12.241 122.45 12.6888 122.363 13.1256C122.276 13.5625 122.189 13.9229 122.189 14.2724H130.099C129.838 12.9618 129.393 12.0772 128.871 11.4546Z" fill="#E8E8E8"/>
<path d="M12.3071 0.499939C13.4479 0.499939 14.5017 0.587313 15.4687 0.849436C16.4356 1.02418 17.2287 1.3846 17.9349 1.82148C18.6411 2.25835 19.1626 2.88089 19.5211 3.67818C19.8687 4.47547 20.0534 5.44751 20.0534 6.50692C20.0534 7.74109 19.7927 8.8005 19.1734 9.59779C18.6411 10.3951 17.7719 11.105 16.7072 11.6292C18.2065 12.0661 19.3473 12.8634 20.0426 13.9228C20.7379 14.9822 21.1833 16.3038 21.1833 17.811C21.1833 19.0451 20.9226 20.1046 20.4772 20.9892C20.0426 21.8739 19.3364 22.6712 18.5433 23.1954C17.7502 23.7306 16.7833 24.1675 15.7294 24.4296C14.6756 24.6917 13.6217 24.8665 12.5679 24.8665L0.790894 24.8883V0.499939H12.3071ZM11.601 10.3951C12.5679 10.3951 13.361 10.133 13.9694 9.68517C14.5778 9.23737 14.8494 8.451 14.8494 7.47896C14.8494 6.9438 14.7625 6.41955 14.5887 6.07005C14.4148 5.72056 14.1541 5.44751 13.7956 5.18539C13.4479 5.01064 13.0894 4.83589 12.6548 4.74852C12.2202 4.66114 11.7748 4.66114 11.2533 4.66114H6.1579V10.406C6.1579 10.3951 11.601 10.3951 11.601 10.3951ZM11.8617 20.8254C12.3941 20.8254 12.9155 20.738 13.361 20.6506C13.7956 20.5633 14.241 20.3885 14.5887 20.1155C14.9363 19.8424 15.2079 19.5803 15.4687 19.1434C15.6425 18.7066 15.8163 18.1714 15.8163 17.5489C15.8163 16.3147 15.4687 15.43 14.7625 14.8075C14.0563 14.2723 13.0894 14.0102 11.9486 14.0102H6.1579V20.8145H11.8617V20.8254ZM28.8319 20.7379C29.538 21.4479 30.5919 21.7974 31.9934 21.7974C32.9603 21.7974 33.8403 21.5352 34.5465 21.0874C35.2527 20.5523 35.6873 20.028 35.8611 19.4929H40.1634C39.4572 21.6117 38.4034 23.1189 37.0019 24.0909C35.6004 24.9756 33.9273 25.4998 31.9065 25.4998C30.505 25.4998 29.2664 25.2377 28.1257 24.7899C26.9849 24.3531 26.1049 23.7305 25.3118 22.8458C24.5187 22.0486 23.9103 21.0765 23.5518 19.9297C23.1172 18.7829 22.9325 17.5488 22.9325 16.1289C22.9325 14.8074 23.1063 13.5623 23.5518 12.4155C23.9972 11.2688 24.6056 10.2967 25.3987 9.41205C26.1918 8.61476 27.1587 7.90484 28.2126 7.46797C29.3533 7.0311 30.4941 6.75805 31.9065 6.75805C33.4058 6.75805 34.7204 7.02018 35.8611 7.64272C37.0019 8.26526 37.8819 8.96425 38.5881 10.0237C39.2943 10.9957 39.8157 12.1425 40.1743 13.3767C40.3481 14.6108 40.435 15.8559 40.3481 17.2648H27.6042C27.6042 18.7065 28.1257 20.028 28.8319 20.7379ZM34.3727 11.4544C33.7534 10.8319 32.7865 10.4824 31.6457 10.4824C30.8526 10.4824 30.2442 10.6571 29.7119 10.9193C29.1795 11.1814 28.8319 11.5418 28.4842 11.8913C28.1365 12.2408 27.9518 12.6886 27.8649 13.1255C27.778 13.5623 27.6911 13.9227 27.6911 14.2722H35.6004C35.4265 12.9616 34.9811 12.077 34.3727 11.4544ZM26.6373 2.18182H36.4804V4.56277H26.6373V2.18182ZM47.2035 0.499939V9.68517H47.2904C47.9097 8.62575 48.6919 7.91584 49.6589 7.47896C50.6258 7.04209 51.5058 6.76905 52.4728 6.76905C53.7873 6.76905 54.8412 6.9438 55.6343 7.30421C56.4274 7.65371 57.1336 8.18888 57.5681 8.81142C58.0027 9.43396 58.3612 10.2203 58.5351 11.105C58.7089 11.9897 58.7958 12.9617 58.7958 14.1085V24.9757H53.9612V14.9932C53.9612 13.4859 53.7004 12.4265 53.255 11.7275C52.8095 11.0285 52.0382 10.6572 50.8974 10.6572C49.5828 10.6572 48.6159 11.0941 48.0835 11.804C47.4643 12.6013 47.2035 13.9228 47.2035 15.6922V24.9757H42.3689V0.499939H47.2035ZM62.3267 9.87096C62.8591 9.07367 63.4675 8.54942 64.2606 8.01425C65.0537 7.57738 65.9337 7.21696 66.9007 7.04221C67.8676 6.86746 68.8345 6.78009 69.8014 6.78009C70.6815 6.78009 71.5615 6.86746 72.5284 6.95484C73.4084 7.04221 74.2884 7.30434 74.9946 7.66476C75.7877 8.01425 76.3092 8.54942 76.8416 9.17196C77.2761 9.7945 77.5477 10.6792 77.5477 11.7386V21.0221C77.5477 21.8194 77.6347 22.6167 77.7216 23.3157C77.8085 24.0256 78.0692 24.6372 78.3408 24.9976H73.4193C73.2455 24.8229 73.1585 24.4625 73.0716 24.2003C72.9847 23.9382 72.9847 23.5778 72.9847 23.3157C72.1916 24.113 71.3116 24.6372 70.2577 24.9976C69.2039 25.3471 68.1501 25.4345 67.0962 25.4345C66.2162 25.4345 65.51 25.3471 64.7278 25.085C64.0216 24.9103 63.4132 24.5498 62.7939 24.113C62.2616 23.6761 61.827 23.1409 61.4793 22.431C61.2186 21.7211 61.0447 21.0221 61.0447 20.0501C61.0447 19.078 61.2186 18.1934 61.5771 17.5708C61.9248 16.9483 62.3702 16.424 62.8917 15.9762C63.424 15.6267 64.1194 15.2663 64.8256 15.0916C65.5317 14.9168 66.2271 14.7421 67.0202 14.6547C67.7263 14.5673 68.4217 14.48 69.1278 14.3926C69.834 14.3052 70.4424 14.2178 70.9748 14.1305C71.5071 13.9557 71.9417 13.781 72.2894 13.5079C72.637 13.2458 72.724 12.8854 72.724 12.3611C72.724 11.826 72.637 11.3891 72.4632 11.127C72.2894 10.8648 72.0286 10.5918 71.757 10.417C71.4963 10.2423 71.1378 10.1549 70.7901 10.0675C70.4424 9.98017 69.997 9.98018 69.5624 9.98018C68.5955 9.98018 67.8893 10.1549 67.3678 10.6027C66.8355 11.0396 66.4878 11.7495 66.4009 12.6342H61.5662C61.5336 11.542 61.8813 10.57 62.3267 9.87096ZM71.9091 16.7626C71.6484 16.85 71.2899 16.9374 70.9422 17.0247C70.5945 17.1121 70.236 17.1121 69.8014 17.1995C69.4538 17.2869 69.0083 17.2869 68.6607 17.3742C68.313 17.4616 67.9545 17.549 67.6068 17.6363C67.2592 17.7237 66.9007 17.8985 66.7268 18.0732C66.4661 18.248 66.2922 18.5101 66.1076 18.7831C65.8468 19.1326 65.8468 19.4931 65.8468 19.9299C65.8468 20.3668 65.9337 20.7272 66.1076 20.9893C66.2814 21.2515 66.4552 21.5245 66.7268 21.6993C66.9876 21.874 67.3461 21.9614 67.6937 22.0488C68.0414 22.1361 68.3999 22.1361 68.8345 22.1361C69.8014 22.1361 70.5076 21.9614 71.0291 21.6993C71.5615 21.3498 71.9091 20.9893 72.1699 20.5525C72.4306 20.1156 72.6044 19.6678 72.6044 19.2309C72.6914 18.7941 72.6914 18.4336 72.6914 18.1715V16.3148C72.4306 16.4896 72.1699 16.6752 71.9091 16.7626ZM84.8269 7.21696V9.69621H84.9138C85.5331 8.63679 86.3153 7.92688 87.2822 7.49001C88.2492 7.05314 89.303 6.78009 90.2699 6.78009C91.5845 6.78009 92.6384 6.95484 93.4315 7.31526C94.3115 7.66476 94.9308 8.19992 95.3653 8.82246C95.7999 9.44501 96.1584 10.2314 96.4192 11.116C96.593 12.0007 96.6799 12.9727 96.6799 14.1195V24.9867H91.8453V15.0042C91.8453 13.497 91.5845 12.4376 91.1391 11.7386C90.7045 11.0287 89.9114 10.5918 88.6729 10.5918C87.3583 10.5918 86.3913 11.127 85.7721 11.9133C85.1528 12.7106 84.8921 14.0322 84.8921 15.8015V25.085H80.0574V7.21696C80.0791 7.21696 84.8269 7.21696 84.8269 7.21696ZM107.512 10.3951C106.719 10.3951 106.11 10.5699 105.578 10.9303C105.045 11.2798 104.611 11.7276 104.263 12.3392C103.916 12.8744 103.731 13.486 103.557 14.1959C103.383 14.9058 103.383 15.5175 103.383 16.2274C103.383 16.8499 103.47 17.5489 103.557 18.1715C103.731 18.8814 103.905 19.4056 104.263 19.9408C104.611 20.4759 104.969 20.9128 105.491 21.2623C106.023 21.6118 106.632 21.7975 107.425 21.7975C108.566 21.7975 109.446 21.448 110.152 20.8254C110.771 20.2029 111.206 19.3182 111.292 18.1715H115.953C115.606 20.5524 114.726 22.3217 113.226 23.5668C111.727 24.801 109.793 25.4235 107.425 25.4235C106.11 25.4235 104.872 25.1614 103.818 24.7136C102.677 24.2767 101.797 23.6542 101.004 22.8569C100.211 22.0596 99.6024 21.0876 99.157 20.0282C98.7224 18.8814 98.5377 17.7346 98.5377 16.4021C98.5377 14.9932 98.7115 13.7481 99.157 12.6013C99.5916 11.4546 100.124 10.3951 100.917 9.51047C101.71 8.62581 102.677 8.00327 103.731 7.47902C104.872 7.04215 106.099 6.7691 107.512 6.7691C108.566 6.7691 109.532 6.94385 110.499 7.20598C111.466 7.4681 112.346 7.91589 113.053 8.44014C113.846 8.9753 114.454 9.6743 114.899 10.559C115.334 11.3563 115.606 12.4157 115.693 13.5625H110.945C110.76 11.4546 109.619 10.3951 107.512 10.3951ZM123.243 20.7381C123.95 21.448 125.09 21.7975 126.405 21.7975C127.372 21.7975 128.252 21.5354 128.958 21.0876C129.664 20.5525 130.099 20.0282 130.273 19.493H134.488C133.782 21.6119 132.728 23.1191 131.326 24.0911C129.925 24.9758 128.252 25.5 126.231 25.5C124.83 25.5 123.591 25.2379 122.45 24.7901C121.309 24.3532 120.429 23.7307 119.636 22.846C118.843 22.0487 118.235 21.0767 117.876 19.9299C117.442 18.7831 117.257 17.549 117.257 16.1291C117.257 14.8076 117.431 13.5625 117.876 12.4157C118.311 11.2689 118.93 10.2969 119.723 9.41223C120.516 8.61494 121.483 7.90503 122.537 7.46816C123.678 7.03128 124.906 6.75824 126.231 6.75824C127.73 6.75824 129.045 7.02036 130.099 7.6429C131.239 8.26545 132.12 8.96444 132.826 10.0239C133.532 10.9959 134.053 12.1427 134.412 13.3768C134.76 14.611 134.846 15.9435 134.76 17.3524H122.016C122.016 18.7067 122.537 20.0282 123.243 20.7381ZM128.871 11.4546C128.252 10.8321 127.285 10.4826 126.144 10.4826C125.351 10.4826 124.743 10.6573 124.21 10.9194C123.678 11.1816 123.243 11.542 122.983 11.8915C122.722 12.241 122.45 12.6888 122.363 13.1256C122.276 13.5625 122.189 13.9229 122.189 14.2724H130.099C129.838 12.9618 129.393 12.0772 128.871 11.4546Z" fill="#E8E8E8"/>
<path d="M12.3071 0.499939C13.4479 0.499939 14.5017 0.587313 15.4687 0.849436C16.4356 1.02418 17.2287 1.3846 17.9349 1.82148C18.6411 2.25835 19.1626 2.88089 19.5211 3.67818C19.8687 4.47547 20.0534 5.44751 20.0534 6.50692C20.0534 7.74109 19.7927 8.8005 19.1734 9.59779C18.6411 10.3951 17.7719 11.105 16.7072 11.6292C18.2065 12.0661 19.3473 12.8634 20.0426 13.9228C20.7379 14.9822 21.1833 16.3038 21.1833 17.811C21.1833 19.0451 20.9226 20.1046 20.4772 20.9892C20.0426 21.8739 19.3364 22.6712 18.5433 23.1954C17.7502 23.7306 16.7833 24.1675 15.7294 24.4296C14.6756 24.6917 13.6217 24.8665 12.5679 24.8665L0.790894 24.8883V0.499939H12.3071ZM11.601 10.3951C12.5679 10.3951 13.361 10.133 13.9694 9.68517C14.5778 9.23737 14.8494 8.451 14.8494 7.47896C14.8494 6.9438 14.7625 6.41955 14.5887 6.07005C14.4148 5.72056 14.1541 5.44751 13.7956 5.18539C13.4479 5.01064 13.0894 4.83589 12.6548 4.74852C12.2202 4.66114 11.7748 4.66114 11.2533 4.66114H6.1579V10.406C6.1579 10.3951 11.601 10.3951 11.601 10.3951ZM11.8617 20.8254C12.3941 20.8254 12.9155 20.738 13.361 20.6506C13.7956 20.5633 14.241 20.3885 14.5887 20.1155C14.9363 19.8424 15.2079 19.5803 15.4687 19.1434C15.6425 18.7066 15.8163 18.1714 15.8163 17.5489C15.8163 16.3147 15.4687 15.43 14.7625 14.8075C14.0563 14.2723 13.0894 14.0102 11.9486 14.0102H6.1579V20.8145H11.8617V20.8254ZM28.8319 20.7379C29.538 21.4479 30.5919 21.7974 31.9934 21.7974C32.9603 21.7974 33.8403 21.5352 34.5465 21.0874C35.2527 20.5523 35.6873 20.028 35.8611 19.4929H40.1634C39.4572 21.6117 38.4034 23.1189 37.0019 24.0909C35.6004 24.9756 33.9273 25.4998 31.9065 25.4998C30.505 25.4998 29.2664 25.2377 28.1257 24.7899C26.9849 24.3531 26.1049 23.7305 25.3118 22.8458C24.5187 22.0486 23.9103 21.0765 23.5518 19.9297C23.1172 18.7829 22.9325 17.5488 22.9325 16.1289C22.9325 14.8074 23.1063 13.5623 23.5518 12.4155C23.9972 11.2688 24.6056 10.2967 25.3987 9.41205C26.1918 8.61476 27.1587 7.90484 28.2126 7.46797C29.3533 7.0311 30.4941 6.75805 31.9065 6.75805C33.4058 6.75805 34.7204 7.02018 35.8611 7.64272C37.0019 8.26526 37.8819 8.96425 38.5881 10.0237C39.2943 10.9957 39.8157 12.1425 40.1743 13.3767C40.3481 14.6108 40.435 15.8559 40.3481 17.2648H27.6042C27.6042 18.7065 28.1257 20.028 28.8319 20.7379ZM34.3727 11.4544C33.7534 10.8319 32.7865 10.4824 31.6457 10.4824C30.8526 10.4824 30.2442 10.6571 29.7119 10.9193C29.1795 11.1814 28.8319 11.5418 28.4842 11.8913C28.1365 12.2408 27.9518 12.6886 27.8649 13.1255C27.778 13.5623 27.6911 13.9227 27.6911 14.2722H35.6004C35.4265 12.9616 34.9811 12.077 34.3727 11.4544ZM26.6373 2.18182H36.4804V4.56277H26.6373V2.18182ZM47.2035 0.499939V9.68517H47.2904C47.9097 8.62575 48.6919 7.91584 49.6589 7.47896C50.6258 7.04209 51.5058 6.76905 52.4728 6.76905C53.7873 6.76905 54.8412 6.9438 55.6343 7.30421C56.4274 7.65371 57.1336 8.18888 57.5681 8.81142C58.0027 9.43396 58.3612 10.2203 58.5351 11.105C58.7089 11.9897 58.7958 12.9617 58.7958 14.1085V24.9757H53.9612V14.9932C53.9612 13.4859 53.7004 12.4265 53.255 11.7275C52.8095 11.0285 52.0382 10.6572 50.8974 10.6572C49.5828 10.6572 48.6159 11.0941 48.0835 11.804C47.4643 12.6013 47.2035 13.9228 47.2035 15.6922V24.9757H42.3689V0.499939H47.2035ZM62.3267 9.87096C62.8591 9.07367 63.4675 8.54942 64.2606 8.01425C65.0537 7.57738 65.9337 7.21696 66.9007 7.04221C67.8676 6.86746 68.8345 6.78009 69.8014 6.78009C70.6815 6.78009 71.5615 6.86746 72.5284 6.95484C73.4084 7.04221 74.2884 7.30434 74.9946 7.66476C75.7877 8.01425 76.3092 8.54942 76.8416 9.17196C77.2761 9.7945 77.5477 10.6792 77.5477 11.7386V21.0221C77.5477 21.8194 77.6347 22.6167 77.7216 23.3157C77.8085 24.0256 78.0692 24.6372 78.3408 24.9976H73.4193C73.2455 24.8229 73.1585 24.4625 73.0716 24.2003C72.9847 23.9382 72.9847 23.5778 72.9847 23.3157C72.1916 24.113 71.3116 24.6372 70.2577 24.9976C69.2039 25.3471 68.1501 25.4345 67.0962 25.4345C66.2162 25.4345 65.51 25.3471 64.7278 25.085C64.0216 24.9103 63.4132 24.5498 62.7939 24.113C62.2616 23.6761 61.827 23.1409 61.4793 22.431C61.2186 21.7211 61.0447 21.0221 61.0447 20.0501C61.0447 19.078 61.2186 18.1934 61.5771 17.5708C61.9248 16.9483 62.3702 16.424 62.8917 15.9762C63.424 15.6267 64.1194 15.2663 64.8256 15.0916C65.5317 14.9168 66.2271 14.7421 67.0202 14.6547C67.7263 14.5673 68.4217 14.48 69.1278 14.3926C69.834 14.3052 70.4424 14.2178 70.9748 14.1305C71.5071 13.9557 71.9417 13.781 72.2894 13.5079C72.637 13.2458 72.724 12.8854 72.724 12.3611C72.724 11.826 72.637 11.3891 72.4632 11.127C72.2894 10.8648 72.0286 10.5918 71.757 10.417C71.4963 10.2423 71.1378 10.1549 70.7901 10.0675C70.4424 9.98017 69.997 9.98018 69.5624 9.98018C68.5955 9.98018 67.8893 10.1549 67.3678 10.6027C66.8355 11.0396 66.4878 11.7495 66.4009 12.6342H61.5662C61.5336 11.542 61.8813 10.57 62.3267 9.87096ZM71.9091 16.7626C71.6484 16.85 71.2899 16.9374 70.9422 17.0247C70.5945 17.1121 70.236 17.1121 69.8014 17.1995C69.4538 17.2869 69.0083 17.2869 68.6607 17.3742C68.313 17.4616 67.9545 17.549 67.6068 17.6363C67.2592 17.7237 66.9007 17.8985 66.7268 18.0732C66.4661 18.248 66.2922 18.5101 66.1076 18.7831C65.8468 19.1326 65.8468 19.4931 65.8468 19.9299C65.8468 20.3668 65.9337 20.7272 66.1076 20.9893C66.2814 21.2515 66.4552 21.5245 66.7268 21.6993C66.9876 21.874 67.3461 21.9614 67.6937 22.0488C68.0414 22.1361 68.3999 22.1361 68.8345 22.1361C69.8014 22.1361 70.5076 21.9614 71.0291 21.6993C71.5615 21.3498 71.9091 20.9893 72.1699 20.5525C72.4306 20.1156 72.6044 19.6678 72.6044 19.2309C72.6914 18.7941 72.6914 18.4336 72.6914 18.1715V16.3148C72.4306 16.4896 72.1699 16.6752 71.9091 16.7626ZM84.8269 7.21696V9.69621H84.9138C85.5331 8.63679 86.3153 7.92688 87.2822 7.49001C88.2492 7.05314 89.303 6.78009 90.2699 6.78009C91.5845 6.78009 92.6384 6.95484 93.4315 7.31526C94.3115 7.66476 94.9308 8.19992 95.3653 8.82246C95.7999 9.44501 96.1584 10.2314 96.4192 11.116C96.593 12.0007 96.6799 12.9727 96.6799 14.1195V24.9867H91.8453V15.0042C91.8453 13.497 91.5845 12.4376 91.1391 11.7386C90.7045 11.0287 89.9114 10.5918 88.6729 10.5918C87.3583 10.5918 86.3913 11.127 85.7721 11.9133C85.1528 12.7106 84.8921 14.0322 84.8921 15.8015V25.085H80.0574V7.21696C80.0791 7.21696 84.8269 7.21696 84.8269 7.21696ZM107.512 10.3951C106.719 10.3951 106.11 10.5699 105.578 10.9303C105.045 11.2798 104.611 11.7276 104.263 12.3392C103.916 12.8744 103.731 13.486 103.557 14.1959C103.383 14.9058 103.383 15.5175 103.383 16.2274C103.383 16.8499 103.47 17.5489 103.557 18.1715C103.731 18.8814 103.905 19.4056 104.263 19.9408C104.611 20.4759 104.969 20.9128 105.491 21.2623C106.023 21.6118 106.632 21.7975 107.425 21.7975C108.566 21.7975 109.446 21.448 110.152 20.8254C110.771 20.2029 111.206 19.3182 111.292 18.1715H115.953C115.606 20.5524 114.726 22.3217 113.226 23.5668C111.727 24.801 109.793 25.4235 107.425 25.4235C106.11 25.4235 104.872 25.1614 103.818 24.7136C102.677 24.2767 101.797 23.6542 101.004 22.8569C100.211 22.0596 99.6024 21.0876 99.157 20.0282C98.7224 18.8814 98.5377 17.7346 98.5377 16.4021C98.5377 14.9932 98.7115 13.7481 99.157 12.6013C99.5916 11.4546 100.124 10.3951 100.917 9.51047C101.71 8.62581 102.677 8.00327 103.731 7.47902C104.872 7.04215 106.099 6.7691 107.512 6.7691C108.566 6.7691 109.532 6.94385 110.499 7.20598C111.466 7.4681 112.346 7.91589 113.053 8.44014C113.846 8.9753 114.454 9.6743 114.899 10.559C115.334 11.3563 115.606 12.4157 115.693 13.5625H110.945C110.76 11.4546 109.619 10.3951 107.512 10.3951ZM123.243 20.7381C123.95 21.448 125.09 21.7975 126.405 21.7975C127.372 21.7975 128.252 21.5354 128.958 21.0876C129.664 20.5525 130.099 20.0282 130.273 19.493H134.488C133.782 21.6119 132.728 23.1191 131.326 24.0911C129.925 24.9758 128.252 25.5 126.231 25.5C124.83 25.5 123.591 25.2379 122.45 24.7901C121.309 24.3532 120.429 23.7307 119.636 22.846C118.843 22.0487 118.235 21.0767 117.876 19.9299C117.442 18.7831 117.257 17.549 117.257 16.1291C117.257 14.8076 117.431 13.5625 117.876 12.4157C118.311 11.2689 118.93 10.2969 119.723 9.41223C120.516 8.61494 121.483 7.90503 122.537 7.46816C123.678 7.03128 124.906 6.75824 126.231 6.75824C127.73 6.75824 129.045 7.02036 130.099 7.6429C131.239 8.26545 132.12 8.96444 132.826 10.0239C133.532 10.9959 134.053 12.1427 134.412 13.3768C134.76 14.611 134.846 15.9435 134.76 17.3524H122.016C122.016 18.7067 122.537 20.0282 123.243 20.7381ZM128.871 11.4546C128.252 10.8321 127.285 10.4826 126.144 10.4826C125.351 10.4826 124.743 10.6573 124.21 10.9194C123.678 11.1816 123.243 11.542 122.983 11.8915C122.722 12.241 122.45 12.6888 122.363 13.1256C122.276 13.5625 122.189 13.9229 122.189 14.2724H130.099C129.838 12.9618 129.393 12.0772 128.871 11.4546Z" fill="#E8E8E8"/>
<path d="M12.3071 0.499939C13.4479 0.499939 14.5017 0.587313 15.4687 0.849436C16.4356 1.02418 17.2287 1.3846 17.9349 1.82148C18.6411 2.25835 19.1626 2.88089 19.5211 3.67818C19.8687 4.47547 20.0534 5.44751 20.0534 6.50692C20.0534 7.74109 19.7927 8.8005 19.1734 9.59779C18.6411 10.3951 17.7719 11.105 16.7072 11.6292C18.2065 12.0661 19.3473 12.8634 20.0426 13.9228C20.7379 14.9822 21.1833 16.3038 21.1833 17.811C21.1833 19.0451 20.9226 20.1046 20.4772 20.9892C20.0426 21.8739 19.3364 22.6712 18.5433 23.1954C17.7502 23.7306 16.7833 24.1675 15.7294 24.4296C14.6756 24.6917 13.6217 24.8665 12.5679 24.8665L0.790894 24.8883V0.499939H12.3071ZM11.601 10.3951C12.5679 10.3951 13.361 10.133 13.9694 9.68517C14.5778 9.23737 14.8494 8.451 14.8494 7.47896C14.8494 6.9438 14.7625 6.41955 14.5887 6.07005C14.4148 5.72056 14.1541 5.44751 13.7956 5.18539C13.4479 5.01064 13.0894 4.83589 12.6548 4.74852C12.2202 4.66114 11.7748 4.66114 11.2533 4.66114H6.1579V10.406C6.1579 10.3951 11.601 10.3951 11.601 10.3951ZM11.8617 20.8254C12.3941 20.8254 12.9155 20.738 13.361 20.6506C13.7956 20.5633 14.241 20.3885 14.5887 20.1155C14.9363 19.8424 15.2079 19.5803 15.4687 19.1434C15.6425 18.7066 15.8163 18.1714 15.8163 17.5489C15.8163 16.3147 15.4687 15.43 14.7625 14.8075C14.0563 14.2723 13.0894 14.0102 11.9486 14.0102H6.1579V20.8145H11.8617V20.8254ZM28.8319 20.7379C29.538 21.4479 30.5919 21.7974 31.9934 21.7974C32.9603 21.7974 33.8403 21.5352 34.5465 21.0874C35.2527 20.5523 35.6873 20.028 35.8611 19.4929H40.1634C39.4572 21.6117 38.4034 23.1189 37.0019 24.0909C35.6004 24.9756 33.9273 25.4998 31.9065 25.4998C30.505 25.4998 29.2664 25.2377 28.1257 24.7899C26.9849 24.3531 26.1049 23.7305 25.3118 22.8458C24.5187 22.0486 23.9103 21.0765 23.5518 19.9297C23.1172 18.7829 22.9325 17.5488 22.9325 16.1289C22.9325 14.8074 23.1063 13.5623 23.5518 12.4155C23.9972 11.2688 24.6056 10.2967 25.3987 9.41205C26.1918 8.61476 27.1587 7.90484 28.2126 7.46797C29.3533 7.0311 30.4941 6.75805 31.9065 6.75805C33.4058 6.75805 34.7204 7.02018 35.8611 7.64272C37.0019 8.26526 37.8819 8.96425 38.5881 10.0237C39.2943 10.9957 39.8157 12.1425 40.1743 13.3767C40.3481 14.6108 40.435 15.8559 40.3481 17.2648H27.6042C27.6042 18.7065 28.1257 20.028 28.8319 20.7379ZM34.3727 11.4544C33.7534 10.8319 32.7865 10.4824 31.6457 10.4824C30.8526 10.4824 30.2442 10.6571 29.7119 10.9193C29.1795 11.1814 28.8319 11.5418 28.4842 11.8913C28.1365 12.2408 27.9518 12.6886 27.8649 13.1255C27.778 13.5623 27.6911 13.9227 27.6911 14.2722H35.6004C35.4265 12.9616 34.9811 12.077 34.3727 11.4544ZM26.6373 2.18182H36.4804V4.56277H26.6373V2.18182ZM47.2035 0.499939V9.68517H47.2904C47.9097 8.62575 48.6919 7.91584 49.6589 7.47896C50.6258 7.04209 51.5058 6.76905 52.4728 6.76905C53.7873 6.76905 54.8412 6.9438 55.6343 7.30421C56.4274 7.65371 57.1336 8.18888 57.5681 8.81142C58.0027 9.43396 58.3612 10.2203 58.5351 11.105C58.7089 11.9897 58.7958 12.9617 58.7958 14.1085V24.9757H53.9612V14.9932C53.9612 13.4859 53.7004 12.4265 53.255 11.7275C52.8095 11.0285 52.0382 10.6572 50.8974 10.6572C49.5828 10.6572 48.6159 11.0941 48.0835 11.804C47.4643 12.6013 47.2035 13.9228 47.2035 15.6922V24.9757H42.3689V0.499939H47.2035ZM62.3267 9.87096C62.8591 9.07367 63.4675 8.54942 64.2606 8.01425C65.0537 7.57738 65.9337 7.21696 66.9007 7.04221C67.8676 6.86746 68.8345 6.78009 69.8014 6.78009C70.6815 6.78009 71.5615 6.86746 72.5284 6.95484C73.4084 7.04221 74.2884 7.30434 74.9946 7.66476C75.7877 8.01425 76.3092 8.54942 76.8416 9.17196C77.2761 9.7945 77.5477 10.6792 77.5477 11.7386V21.0221C77.5477 21.8194 77.6347 22.6167 77.7216 23.3157C77.8085 24.0256 78.0692 24.6372 78.3408 24.9976H73.4193C73.2455 24.8229 73.1585 24.4625 73.0716 24.2003C72.9847 23.9382 72.9847 23.5778 72.9847 23.3157C72.1916 24.113 71.3116 24.6372 70.2577 24.9976C69.2039 25.3471 68.1501 25.4345 67.0962 25.4345C66.2162 25.4345 65.51 25.3471 64.7278 25.085C64.0216 24.9103 63.4132 24.5498 62.7939 24.113C62.2616 23.6761 61.827 23.1409 61.4793 22.431C61.2186 21.7211 61.0447 21.0221 61.0447 20.0501C61.0447 19.078 61.2186 18.1934 61.5771 17.5708C61.9248 16.9483 62.3702 16.424 62.8917 15.9762C63.424 15.6267 64.1194 15.2663 64.8256 15.0916C65.5317 14.9168 66.2271 14.7421 67.0202 14.6547C67.7263 14.5673 68.4217 14.48 69.1278 14.3926C69.834 14.3052 70.4424 14.2178 70.9748 14.1305C71.5071 13.9557 71.9417 13.781 72.2894 13.5079C72.637 13.2458 72.724 12.8854 72.724 12.3611C72.724 11.826 72.637 11.3891 72.4632 11.127C72.2894 10.8648 72.0286 10.5918 71.757 10.417C71.4963 10.2423 71.1378 10.1549 70.7901 10.0675C70.4424 9.98017 69.997 9.98018 69.5624 9.98018C68.5955 9.98018 67.8893 10.1549 67.3678 10.6027C66.8355 11.0396 66.4878 11.7495 66.4009 12.6342H61.5662C61.5336 11.542 61.8813 10.57 62.3267 9.87096ZM71.9091 16.7626C71.6484 16.85 71.2899 16.9374 70.9422 17.0247C70.5945 17.1121 70.236 17.1121 69.8014 17.1995C69.4538 17.2869 69.0083 17.2869 68.6607 17.3742C68.313 17.4616 67.9545 17.549 67.6068 17.6363C67.2592 17.7237 66.9007 17.8985 66.7268 18.0732C66.4661 18.248 66.2922 18.5101 66.1076 18.7831C65.8468 19.1326 65.8468 19.4931 65.8468 19.9299C65.8468 20.3668 65.9337 20.7272 66.1076 20.9893C66.2814 21.2515 66.4552 21.5245 66.7268 21.6993C66.9876 21.874 67.3461 21.9614 67.6937 22.0488C68.0414 22.1361 68.3999 22.1361 68.8345 22.1361C69.8014 22.1361 70.5076 21.9614 71.0291 21.6993C71.5615 21.3498 71.9091 20.9893 72.1699 20.5525C72.4306 20.1156 72.6044 19.6678 72.6044 19.2309C72.6914 18.7941 72.6914 18.4336 72.6914 18.1715V16.3148C72.4306 16.4896 72.1699 16.6752 71.9091 16.7626ZM84.8269 7.21696V9.69621H84.9138C85.5331 8.63679 86.3153 7.92688 87.2822 7.49001C88.2492 7.05314 89.303 6.78009 90.2699 6.78009C91.5845 6.78009 92.6384 6.95484 93.4315 7.31526C94.3115 7.66476 94.9308 8.19992 95.3653 8.82246C95.7999 9.44501 96.1584 10.2314 96.4192 11.116C96.593 12.0007 96.6799 12.9727 96.6799 14.1195V24.9867H91.8453V15.0042C91.8453 13.497 91.5845 12.4376 91.1391 11.7386C90.7045 11.0287 89.9114 10.5918 88.6729 10.5918C87.3583 10.5918 86.3913 11.127 85.7721 11.9133C85.1528 12.7106 84.8921 14.0322 84.8921 15.8015V25.085H80.0574V7.21696C80.0791 7.21696 84.8269 7.21696 84.8269 7.21696ZM107.512 10.3951C106.719 10.3951 106.11 10.5699 105.578 10.9303C105.045 11.2798 104.611 11.7276 104.263 12.3392C103.916 12.8744 103.731 13.486 103.557 14.1959C103.383 14.9058 103.383 15.5175 103.383 16.2274C103.383 16.8499 103.47 17.5489 103.557 18.1715C103.731 18.8814 103.905 19.4056 104.263 19.9408C104.611 20.4759 104.969 20.9128 105.491 21.2623C106.023 21.6118 106.632 21.7975 107.425 21.7975C108.566 21.7975 109.446 21.448 110.152 20.8254C110.771 20.2029 111.206 19.3182 111.292 18.1715H115.953C115.606 20.5524 114.726 22.3217 113.226 23.5668C111.727 24.801 109.793 25.4235 107.425 25.4235C106.11 25.4235 104.872 25.1614 103.818 24.7136C102.677 24.2767 101.797 23.6542 101.004 22.8569C100.211 22.0596 99.6024 21.0876 99.157 20.0282C98.7224 18.8814 98.5377 17.7346 98.5377 16.4021C98.5377 14.9932 98.7115 13.7481 99.157 12.6013C99.5916 11.4546 100.124 10.3951 100.917 9.51047C101.71 8.62581 102.677 8.00327 103.731 7.47902C104.872 7.04215 106.099 6.7691 107.512 6.7691C108.566 6.7691 109.532 6.94385 110.499 7.20598C111.466 7.4681 112.346 7.91589 113.053 8.44014C113.846 8.9753 114.454 9.6743 114.899 10.559C115.334 11.3563 115.606 12.4157 115.693 13.5625H110.945C110.76 11.4546 109.619 10.3951 107.512 10.3951ZM123.243 20.7381C123.95 21.448 125.09 21.7975 126.405 21.7975C127.372 21.7975 128.252 21.5354 128.958 21.0876C129.664 20.5525 130.099 20.0282 130.273 19.493H134.488C133.782 21.6119 132.728 23.1191 131.326 24.0911C129.925 24.9758 128.252 25.5 126.231 25.5C124.83 25.5 123.591 25.2379 122.45 24.7901C121.309 24.3532 120.429 23.7307 119.636 22.846C118.843 22.0487 118.235 21.0767 117.876 19.9299C117.442 18.7831 117.257 17.549 117.257 16.1291C117.257 14.8076 117.431 13.5625 117.876 12.4157C118.311 11.2689 118.93 10.2969 119.723 9.41223C120.516 8.61494 121.483 7.90503 122.537 7.46816C123.678 7.03128 124.906 6.75824 126.231 6.75824C127.73 6.75824 129.045 7.02036 130.099 7.6429C131.239 8.26545 132.12 8.96444 132.826 10.0239C133.532 10.9959 134.053 12.1427 134.412 13.3768C134.76 14.611 134.846 15.9435 134.76 17.3524H122.016C122.016 18.7067 122.537 20.0282 123.243 20.7381ZM128.871 11.4546C128.252 10.8321 127.285 10.4826 126.144 10.4826C125.351 10.4826 124.743 10.6573 124.21 10.9194C123.678 11.1816 123.243 11.542 122.983 11.8915C122.722 12.241 122.45 12.6888 122.363 13.1256C122.276 13.5625 122.189 13.9229 122.189 14.2724H130.099C129.838 12.9618 129.393 12.0772 128.871 11.4546Z" fill="#E8E8E8"/>
<path d="M12.3071 0.499939C13.4479 0.499939 14.5017 0.587313 15.4687 0.849436C16.4356 1.02418 17.2287 1.3846 17.9349 1.82148C18.6411 2.25835 19.1626 2.88089 19.5211 3.67818C19.8687 4.47547 20.0534 5.44751 20.0534 6.50692C20.0534 7.74109 19.7927 8.8005 19.1734 9.59779C18.6411 10.3951 17.7719 11.105 16.7072 11.6292C18.2065 12.0661 19.3473 12.8634 20.0426 13.9228C20.7379 14.9822 21.1833 16.3038 21.1833 17.811C21.1833 19.0451 20.9226 20.1046 20.4772 20.9892C20.0426 21.8739 19.3364 22.6712 18.5433 23.1954C17.7502 23.7306 16.7833 24.1675 15.7294 24.4296C14.6756 24.6917 13.6217 24.8665 12.5679 24.8665L0.790894 24.8883V0.499939H12.3071ZM11.601 10.3951C12.5679 10.3951 13.361 10.133 13.9694 9.68517C14.5778 9.23737 14.8494 8.451 14.8494 7.47896C14.8494 6.9438 14.7625 6.41955 14.5887 6.07005C14.4148 5.72056 14.1541 5.44751 13.7956 5.18539C13.4479 5.01064 13.0894 4.83589 12.6548 4.74852C12.2202 4.66114 11.7748 4.66114 11.2533 4.66114H6.1579V10.406C6.1579 10.3951 11.601 10.3951 11.601 10.3951ZM11.8617 20.8254C12.3941 20.8254 12.9155 20.738 13.361 20.6506C13.7956 20.5633 14.241 20.3885 14.5887 20.1155C14.9363 19.8424 15.2079 19.5803 15.4687 19.1434C15.6425 18.7066 15.8163 18.1714 15.8163 17.5489C15.8163 16.3147 15.4687 15.43 14.7625 14.8075C14.0563 14.2723 13.0894 14.0102 11.9486 14.0102H6.1579V20.8145H11.8617V20.8254ZM28.8319 20.7379C29.538 21.4479 30.5919 21.7974 31.9934 21.7974C32.9603 21.7974 33.8403 21.5352 34.5465 21.0874C35.2527 20.5523 35.6873 20.028 35.8611 19.4929H40.1634C39.4572 21.6117 38.4034 23.1189 37.0019 24.0909C35.6004 24.9756 33.9273 25.4998 31.9065 25.4998C30.505 25.4998 29.2664 25.2377 28.1257 24.7899C26.9849 24.3531 26.1049 23.7305 25.3118 22.8458C24.5187 22.0486 23.9103 21.0765 23.5518 19.9297C23.1172 18.7829 22.9325 17.5488 22.9325 16.1289C22.9325 14.8074 23.1063 13.5623 23.5518 12.4155C23.9972 11.2688 24.6056 10.2967 25.3987 9.41205C26.1918 8.61476 27.1587 7.90484 28.2126 7.46797C29.3533 7.0311 30.4941 6.75805 31.9065 6.75805C33.4058 6.75805 34.7204 7.02018 35.8611 7.64272C37.0019 8.26526 37.8819 8.96425 38.5881 10.0237C39.2943 10.9957 39.8157 12.1425 40.1743 13.3767C40.3481 14.6108 40.435 15.8559 40.3481 17.2648H27.6042C27.6042 18.7065 28.1257 20.028 28.8319 20.7379ZM34.3727 11.4544C33.7534 10.8319 32.7865 10.4824 31.6457 10.4824C30.8526 10.4824 30.2442 10.6571 29.7119 10.9193C29.1795 11.1814 28.8319 11.5418 28.4842 11.8913C28.1365 12.2408 27.9518 12.6886 27.8649 13.1255C27.778 13.5623 27.6911 13.9227 27.6911 14.2722H35.6004C35.4265 12.9616 34.9811 12.077 34.3727 11.4544ZM26.6373 2.18182H36.4804V4.56277H26.6373V2.18182ZM47.2035 0.499939V9.68517H47.2904C47.9097 8.62575 48.6919 7.91584 49.6589 7.47896C50.6258 7.04209 51.5058 6.76905 52.4728 6.76905C53.7873 6.76905 54.8412 6.9438 55.6343 7.30421C56.4274 7.65371 57.1336 8.18888 57.5681 8.81142C58.0027 9.43396 58.3612 10.2203 58.5351 11.105C58.7089 11.9897 58.7958 12.9617 58.7958 14.1085V24.9757H53.9612V14.9932C53.9612 13.4859 53.7004 12.4265 53.255 11.7275C52.8095 11.0285 52.0382 10.6572 50.8974 10.6572C49.5828 10.6572 48.6159 11.0941 48.0835 11.804C47.4643 12.6013 47.2035 13.9228 47.2035 15.6922V24.9757H42.3689V0.499939H47.2035ZM62.3267 9.87096C62.8591 9.07367 63.4675 8.54942 64.2606 8.01425C65.0537 7.57738 65.9337 7.21696 66.9007 7.04221C67.8676 6.86746 68.8345 6.78009 69.8014 6.78009C70.6815 6.78009 71.5615 6.86746 72.5284 6.95484C73.4084 7.04221 74.2884 7.30434 74.9946 7.66476C75.7877 8.01425 76.3092 8.54942 76.8416 9.17196C77.2761 9.7945 77.5477 10.6792 77.5477 11.7386V21.0221C77.5477 21.8194 77.6347 22.6167 77.7216 23.3157C77.8085 24.0256 78.0692 24.6372 78.3408 24.9976H73.4193C73.2455 24.8229 73.1585 24.4625 73.0716 24.2003C72.9847 23.9382 72.9847 23.5778 72.9847 23.3157C72.1916 24.113 71.3116 24.6372 70.2577 24.9976C69.2039 25.3471 68.1501 25.4345 67.0962 25.4345C66.2162 25.4345 65.51 25.3471 64.7278 25.085C64.0216 24.9103 63.4132 24.5498 62.7939 24.113C62.2616 23.6761 61.827 23.1409 61.4793 22.431C61.2186 21.7211 61.0447 21.0221 61.0447 20.0501C61.0447 19.078 61.2186 18.1934 61.5771 17.5708C61.9248 16.9483 62.3702 16.424 62.8917 15.9762C63.424 15.6267 64.1194 15.2663 64.8256 15.0916C65.5317 14.9168 66.2271 14.7421 67.0202 14.6547C67.7263 14.5673 68.4217 14.48 69.1278 14.3926C69.834 14.3052 70.4424 14.2178 70.9748 14.1305C71.5071 13.9557 71.9417 13.781 72.2894 13.5079C72.637 13.2458 72.724 12.8854 72.724 12.3611C72.724 11.826 72.637 11.3891 72.4632 11.127C72.2894 10.8648 72.0286 10.5918 71.757 10.417C71.4963 10.2423 71.1378 10.1549 70.7901 10.0675C70.4424 9.98017 69.997 9.98018 69.5624 9.98018C68.5955 9.98018 67.8893 10.1549 67.3678 10.6027C66.8355 11.0396 66.4878 11.7495 66.4009 12.6342H61.5662C61.5336 11.542 61.8813 10.57 62.3267 9.87096ZM71.9091 16.7626C71.6484 16.85 71.2899 16.9374 70.9422 17.0247C70.5945 17.1121 70.236 17.1121 69.8014 17.1995C69.4538 17.2869 69.0083 17.2869 68.6607 17.3742C68.313 17.4616 67.9545 17.549 67.6068 17.6363C67.2592 17.7237 66.9007 17.8985 66.7268 18.0732C66.4661 18.248 66.2922 18.5101 66.1076 18.7831C65.8468 19.1326 65.8468 19.4931 65.8468 19.9299C65.8468 20.3668 65.9337 20.7272 66.1076 20.9893C66.2814 21.2515 66.4552 21.5245 66.7268 21.6993C66.9876 21.874 67.3461 21.9614 67.6937 22.0488C68.0414 22.1361 68.3999 22.1361 68.8345 22.1361C69.8014 22.1361 70.5076 21.9614 71.0291 21.6993C71.5615 21.3498 71.9091 20.9893 72.1699 20.5525C72.4306 20.1156 72.6044 19.6678 72.6044 19.2309C72.6914 18.7941 72.6914 18.4336 72.6914 18.1715V16.3148C72.4306 16.4896 72.1699 16.6752 71.9091 16.7626ZM84.8269 7.21696V9.69621H84.9138C85.5331 8.63679 86.3153 7.92688 87.2822 7.49001C88.2492 7.05314 89.303 6.78009 90.2699 6.78009C91.5845 6.78009 92.6384 6.95484 93.4315 7.31526C94.3115 7.66476 94.9308 8.19992 95.3653 8.82246C95.7999 9.44501 96.1584 10.2314 96.4192 11.116C96.593 12.0007 96.6799 12.9727 96.6799 14.1195V24.9867H91.8453V15.0042C91.8453 13.497 91.5845 12.4376 91.1391 11.7386C90.7045 11.0287 89.9114 10.5918 88.6729 10.5918C87.3583 10.5918 86.3913 11.127 85.7721 11.9133C85.1528 12.7106 84.8921 14.0322 84.8921 15.8015V25.085H80.0574V7.21696C80.0791 7.21696 84.8269 7.21696 84.8269 7.21696ZM107.512 10.3951C106.719 10.3951 106.11 10.5699 105.578 10.9303C105.045 11.2798 104.611 11.7276 104.263 12.3392C103.916 12.8744 103.731 13.486 103.557 14.1959C103.383 14.9058 103.383 15.5175 103.383 16.2274C103.383 16.8499 103.47 17.5489 103.557 18.1715C103.731 18.8814 103.905 19.4056 104.263 19.9408C104.611 20.4759 104.969 20.9128 105.491 21.2623C106.023 21.6118 106.632 21.7975 107.425 21.7975C108.566 21.7975 109.446 21.448 110.152 20.8254C110.771 20.2029 111.206 19.3182 111.292 18.1715H115.953C115.606 20.5524 114.726 22.3217 113.226 23.5668C111.727 24.801 109.793 25.4235 107.425 25.4235C106.11 25.4235 104.872 25.1614 103.818 24.7136C102.677 24.2767 101.797 23.6542 101.004 22.8569C100.211 22.0596 99.6024 21.0876 99.157 20.0282C98.7224 18.8814 98.5377 17.7346 98.5377 16.4021C98.5377 14.9932 98.7115 13.7481 99.157 12.6013C99.5916 11.4546 100.124 10.3951 100.917 9.51047C101.71 8.62581 102.677 8.00327 103.731 7.47902C104.872 7.04215 106.099 6.7691 107.512 6.7691C108.566 6.7691 109.532 6.94385 110.499 7.20598C111.466 7.4681 112.346 7.91589 113.053 8.44014C113.846 8.9753 114.454 9.6743 114.899 10.559C115.334 11.3563 115.606 12.4157 115.693 13.5625H110.945C110.76 11.4546 109.619 10.3951 107.512 10.3951ZM123.243 20.7381C123.95 21.448 125.09 21.7975 126.405 21.7975C127.372 21.7975 128.252 21.5354 128.958 21.0876C129.664 20.5525 130.099 20.0282 130.273 19.493H134.488C133.782 21.6119 132.728 23.1191 131.326 24.0911C129.925 24.9758 128.252 25.5 126.231 25.5C124.83 25.5 123.591 25.2379 122.45 24.7901C121.309 24.3532 120.429 23.7307 119.636 22.846C118.843 22.0487 118.235 21.0767 117.876 19.9299C117.442 18.7831 117.257 17.549 117.257 16.1291C117.257 14.8076 117.431 13.5625 117.876 12.4157C118.311 11.2689 118.93 10.2969 119.723 9.41223C120.516 8.61494 121.483 7.90503 122.537 7.46816C123.678 7.03128 124.906 6.75824 126.231 6.75824C127.73 6.75824 129.045 7.02036 130.099 7.6429C131.239 8.26545 132.12 8.96444 132.826 10.0239C133.532 10.9959 134.053 12.1427 134.412 13.3768C134.76 14.611 134.846 15.9435 134.76 17.3524H122.016C122.016 18.7067 122.537 20.0282 123.243 20.7381ZM128.871 11.4546C128.252 10.8321 127.285 10.4826 126.144 10.4826C125.351 10.4826 124.743 10.6573 124.21 10.9194C123.678 11.1816 123.243 11.542 122.983 11.8915C122.722 12.241 122.45 12.6888 122.363 13.1256C122.276 13.5625 122.189 13.9229 122.189 14.2724H130.099C129.838 12.9618 129.393 12.0772 128.871 11.4546Z" fill="#E8E8E8"/>
<path d="M12.3071 0.499939C13.4479 0.499939 14.5017 0.587313 15.4687 0.849436C16.4356 1.02418 17.2287 1.3846 17.9349 1.82148C18.6411 2.25835 19.1626 2.88089 19.5211 3.67818C19.8687 4.47547 20.0534 5.44751 20.0534 6.50692C20.0534 7.74109 19.7927 8.8005 19.1734 9.59779C18.6411 10.3951 17.7719 11.105 16.7072 11.6292C18.2065 12.0661 19.3473 12.8634 20.0426 13.9228C20.7379 14.9822 21.1833 16.3038 21.1833 17.811C21.1833 19.0451 20.9226 20.1046 20.4772 20.9892C20.0426 21.8739 19.3364 22.6712 18.5433 23.1954C17.7502 23.7306 16.7833 24.1675 15.7294 24.4296C14.6756 24.6917 13.6217 24.8665 12.5679 24.8665L0.790894 24.8883V0.499939H12.3071ZM11.601 10.3951C12.5679 10.3951 13.361 10.133 13.9694 9.68517C14.5778 9.23737 14.8494 8.451 14.8494 7.47896C14.8494 6.9438 14.7625 6.41955 14.5887 6.07005C14.4148 5.72056 14.1541 5.44751 13.7956 5.18539C13.4479 5.01064 13.0894 4.83589 12.6548 4.74852C12.2202 4.66114 11.7748 4.66114 11.2533 4.66114H6.1579V10.406C6.1579 10.3951 11.601 10.3951 11.601 10.3951ZM11.8617 20.8254C12.3941 20.8254 12.9155 20.738 13.361 20.6506C13.7956 20.5633 14.241 20.3885 14.5887 20.1155C14.9363 19.8424 15.2079 19.5803 15.4687 19.1434C15.6425 18.7066 15.8163 18.1714 15.8163 17.5489C15.8163 16.3147 15.4687 15.43 14.7625 14.8075C14.0563 14.2723 13.0894 14.0102 11.9486 14.0102H6.1579V20.8145H11.8617V20.8254ZM28.8319 20.7379C29.538 21.4479 30.5919 21.7974 31.9934 21.7974C32.9603 21.7974 33.8403 21.5352 34.5465 21.0874C35.2527 20.5523 35.6873 20.028 35.8611 19.4929H40.1634C39.4572 21.6117 38.4034 23.1189 37.0019 24.0909C35.6004 24.9756 33.9273 25.4998 31.9065 25.4998C30.505 25.4998 29.2664 25.2377 28.1257 24.7899C26.9849 24.3531 26.1049 23.7305 25.3118 22.8458C24.5187 22.0486 23.9103 21.0765 23.5518 19.9297C23.1172 18.7829 22.9325 17.5488 22.9325 16.1289C22.9325 14.8074 23.1063 13.5623 23.5518 12.4155C23.9972 11.2688 24.6056 10.2967 25.3987 9.41205C26.1918 8.61476 27.1587 7.90484 28.2126 7.46797C29.3533 7.0311 30.4941 6.75805 31.9065 6.75805C33.4058 6.75805 34.7204 7.02018 35.8611 7.64272C37.0019 8.26526 37.8819 8.96425 38.5881 10.0237C39.2943 10.9957 39.8157 12.1425 40.1743 13.3767C40.3481 14.6108 40.435 15.8559 40.3481 17.2648H27.6042C27.6042 18.7065 28.1257 20.028 28.8319 20.7379ZM34.3727 11.4544C33.7534 10.8319 32.7865 10.4824 31.6457 10.4824C30.8526 10.4824 30.2442 10.6571 29.7119 10.9193C29.1795 11.1814 28.8319 11.5418 28.4842 11.8913C28.1365 12.2408 27.9518 12.6886 27.8649 13.1255C27.778 13.5623 27.6911 13.9227 27.6911 14.2722H35.6004C35.4265 12.9616 34.9811 12.077 34.3727 11.4544ZM26.6373 2.18182H36.4804V4.56277H26.6373V2.18182ZM47.2035 0.499939V9.68517H47.2904C47.9097 8.62575 48.6919 7.91584 49.6589 7.47896C50.6258 7.04209 51.5058 6.76905 52.4728 6.76905C53.7873 6.76905 54.8412 6.9438 55.6343 7.30421C56.4274 7.65371 57.1336 8.18888 57.5681 8.81142C58.0027 9.43396 58.3612 10.2203 58.5351 11.105C58.7089 11.9897 58.7958 12.9617 58.7958 14.1085V24.9757H53.9612V14.9932C53.9612 13.4859 53.7004 12.4265 53.255 11.7275C52.8095 11.0285 52.0382 10.6572 50.8974 10.6572C49.5828 10.6572 48.6159 11.0941 48.0835 11.804C47.4643 12.6013 47.2035 13.9228 47.2035 15.6922V24.9757H42.3689V0.499939H47.2035ZM62.3267 9.87096C62.8591 9.07367 63.4675 8.54942 64.2606 8.01425C65.0537 7.57738 65.9337 7.21696 66.9007 7.04221C67.8676 6.86746 68.8345 6.78009 69.8014 6.78009C70.6815 6.78009 71.5615 6.86746 72.5284 6.95484C73.4084 7.04221 74.2884 7.30434 74.9946 7.66476C75.7877 8.01425 76.3092 8.54942 76.8416 9.17196C77.2761 9.7945 77.5477 10.6792 77.5477 11.7386V21.0221C77.5477 21.8194 77.6347 22.6167 77.7216 23.3157C77.8085 24.0256 78.0692 24.6372 78.3408 24.9976H73.4193C73.2455 24.8229 73.1585 24.4625 73.0716 24.2003C72.9847 23.9382 72.9847 23.5778 72.9847 23.3157C72.1916 24.113 71.3116 24.6372 70.2577 24.9976C69.2039 25.3471 68.1501 25.4345 67.0962 25.4345C66.2162 25.4345 65.51 25.3471 64.7278 25.085C64.0216 24.9103 63.4132 24.5498 62.7939 24.113C62.2616 23.6761 61.827 23.1409 61.4793 22.431C61.2186 21.7211 61.0447 21.0221 61.0447 20.0501C61.0447 19.078 61.2186 18.1934 61.5771 17.5708C61.9248 16.9483 62.3702 16.424 62.8917 15.9762C63.424 15.6267 64.1194 15.2663 64.8256 15.0916C65.5317 14.9168 66.2271 14.7421 67.0202 14.6547C67.7263 14.5673 68.4217 14.48 69.1278 14.3926C69.834 14.3052 70.4424 14.2178 70.9748 14.1305C71.5071 13.9557 71.9417 13.781 72.2894 13.5079C72.637 13.2458 72.724 12.8854 72.724 12.3611C72.724 11.826 72.637 11.3891 72.4632 11.127C72.2894 10.8648 72.0286 10.5918 71.757 10.417C71.4963 10.2423 71.1378 10.1549 70.7901 10.0675C70.4424 9.98017 69.997 9.98018 69.5624 9.98018C68.5955 9.98018 67.8893 10.1549 67.3678 10.6027C66.8355 11.0396 66.4878 11.7495 66.4009 12.6342H61.5662C61.5336 11.542 61.8813 10.57 62.3267 9.87096ZM71.9091 16.7626C71.6484 16.85 71.2899 16.9374 70.9422 17.0247C70.5945 17.1121 70.236 17.1121 69.8014 17.1995C69.4538 17.2869 69.0083 17.2869 68.6607 17.3742C68.313 17.4616 67.9545 17.549 67.6068 17.6363C67.2592 17.7237 66.9007 17.8985 66.7268 18.0732C66.4661 18.248 66.2922 18.5101 66.1076 18.7831C65.8468 19.1326 65.8468 19.4931 65.8468 19.9299C65.8468 20.3668 65.9337 20.7272 66.1076 20.9893C66.2814 21.2515 66.4552 21.5245 66.7268 21.6993C66.9876 21.874 67.3461 21.9614 67.6937 22.0488C68.0414 22.1361 68.3999 22.1361 68.8345 22.1361C69.8014 22.1361 70.5076 21.9614 71.0291 21.6993C71.5615 21.3498 71.9091 20.9893 72.1699 20.5525C72.4306 20.1156 72.6044 19.6678 72.6044 19.2309C72.6914 18.7941 72.6914 18.4336 72.6914 18.1715V16.3148C72.4306 16.4896 72.1699 16.6752 71.9091 16.7626ZM84.8269 7.21696V9.69621H84.9138C85.5331 8.63679 86.3153 7.92688 87.2822 7.49001C88.2492 7.05314 89.303 6.78009 90.2699 6.78009C91.5845 6.78009 92.6384 6.95484 93.4315 7.31526C94.3115 7.66476 94.9308 8.19992 95.3653 8.82246C95.7999 9.44501 96.1584 10.2314 96.4192 11.116C96.593 12.0007 96.6799 12.9727 96.6799 14.1195V24.9867H91.8453V15.0042C91.8453 13.497 91.5845 12.4376 91.1391 11.7386C90.7045 11.0287 89.9114 10.5918 88.6729 10.5918C87.3583 10.5918 86.3913 11.127 85.7721 11.9133C85.1528 12.7106 84.8921 14.0322 84.8921 15.8015V25.085H80.0574V7.21696C80.0791 7.21696 84.8269 7.21696 84.8269 7.21696ZM107.512 10.3951C106.719 10.3951 106.11 10.5699 105.578 10.9303C105.045 11.2798 104.611 11.7276 104.263 12.3392C103.916 12.8744 103.731 13.486 103.557 14.1959C103.383 14.9058 103.383 15.5175 103.383 16.2274C103.383 16.8499 103.47 17.5489 103.557 18.1715C103.731 18.8814 103.905 19.4056 104.263 19.9408C104.611 20.4759 104.969 20.9128 105.491 21.2623C106.023 21.6118 106.632 21.7975 107.425 21.7975C108.566 21.7975 109.446 21.448 110.152 20.8254C110.771 20.2029 111.206 19.3182 111.292 18.1715H115.953C115.606 20.5524 114.726 22.3217 113.226 23.5668C111.727 24.801 109.793 25.4235 107.425 25.4235C106.11 25.4235 104.872 25.1614 103.818 24.7136C102.677 24.2767 101.797 23.6542 101.004 22.8569C100.211 22.0596 99.6024 21.0876 99.157 20.0282C98.7224 18.8814 98.5377 17.7346 98.5377 16.4021C98.5377 14.9932 98.7115 13.7481 99.157 12.6013C99.5916 11.4546 100.124 10.3951 100.917 9.51047C101.71 8.62581 102.677 8.00327 103.731 7.47902C104.872 7.04215 106.099 6.7691 107.512 6.7691C108.566 6.7691 109.532 6.94385 110.499 7.20598C111.466 7.4681 112.346 7.91589 113.053 8.44014C113.846 8.9753 114.454 9.6743 114.899 10.559C115.334 11.3563 115.606 12.4157 115.693 13.5625H110.945C110.76 11.4546 109.619 10.3951 107.512 10.3951ZM123.243 20.7381C123.95 21.448 125.09 21.7975 126.405 21.7975C127.372 21.7975 128.252 21.5354 128.958 21.0876C129.664 20.5525 130.099 20.0282 130.273 19.493H134.488C133.782 21.6119 132.728 23.1191 131.326 24.0911C129.925 24.9758 128.252 25.5 126.231 25.5C124.83 25.5 123.591 25.2379 122.45 24.7901C121.309 24.3532 120.429 23.7307 119.636 22.846C118.843 22.0487 118.235 21.0767 117.876 19.9299C117.442 18.7831 117.257 17.549 117.257 16.1291C117.257 14.8076 117.431 13.5625 117.876 12.4157C118.311 11.2689 118.93 10.2969 119.723 9.41223C120.516 8.61494 121.483 7.90503 122.537 7.46816C123.678 7.03128 124.906 6.75824 126.231 6.75824C127.73 6.75824 129.045 7.02036 130.099 7.6429C131.239 8.26545 132.12 8.96444 132.826 10.0239C133.532 10.9959 134.053 12.1427 134.412 13.3768C134.76 14.611 134.846 15.9435 134.76 17.3524H122.016C122.016 18.7067 122.537 20.0282 123.243 20.7381ZM128.871 11.4546C128.252 10.8321 127.285 10.4826 126.144 10.4826C125.351 10.4826 124.743 10.6573 124.21 10.9194C123.678 11.1816 123.243 11.542 122.983 11.8915C122.722 12.241 122.45 12.6888 122.363 13.1256C122.276 13.5625 122.189 13.9229 122.189 14.2724H130.099C129.838 12.9618 129.393 12.0772 128.871 11.4546Z" fill="#E8E8E8"/>
</svg>
