<svg width="124" height="30" viewBox="0 0 124 30" fill="none" xmlns="http://www.w3.org/2000/svg">
<path d="M122.062 28.0817C122.138 28.0824 122.213 28.0677 122.282 28.0383C122.352 28.0089 122.415 27.9655 122.467 27.9109C122.519 27.8563 122.559 27.7915 122.585 27.7206C122.612 27.6497 122.623 27.5743 122.618 27.4989C122.618 27.0856 122.369 26.8881 121.856 26.8881H121.029V29.052H121.34V28.1088H121.723L121.731 28.1202L122.325 29.052H122.658L122.019 28.0876L122.062 28.0817ZM121.702 27.8649H121.341V27.1334H121.799C122.035 27.1334 122.304 27.1719 122.304 27.481C122.304 27.8364 122.032 27.8649 121.7 27.8649M0.790894 4.42096H5.38574V21.1371H13.8922V25.3722H0.790894V4.42096ZM15.9236 11.1666H20.3377V25.3644H15.9236V11.1666ZM18.1306 4.1082C18.6371 4.10829 19.1321 4.25836 19.5531 4.53944C19.9742 4.82051 20.3023 5.21997 20.496 5.6873C20.6898 6.15462 20.7404 6.66883 20.6416 7.16491C20.5427 7.66098 20.2988 8.11663 19.9407 8.47426C19.5826 8.83188 19.1263 9.07541 18.6296 9.17406C18.1329 9.2727 17.618 9.22203 17.1501 9.02844C16.6823 8.83486 16.2824 8.50706 16.001 8.08649C15.7197 7.66593 15.5695 7.17148 15.5695 6.66568C15.5695 6.32979 15.6358 5.99719 15.7645 5.68687C15.8932 5.37655 16.0819 5.0946 16.3197 4.85711C16.5575 4.61962 16.8399 4.43125 17.1506 4.30275C17.4613 4.17425 17.7943 4.10814 18.1306 4.1082ZM38.8026 4.41774H43.2167V16.9388L48.2194 11.1602H53.6314L47.8378 17.7333L53.5095 25.3703H47.9615L43.2756 18.3523H43.2177V25.3694H38.8035L38.8026 4.41774ZM22.7853 11.168H27.0242V13.1083H27.0844C27.5078 12.3838 28.1203 11.7878 28.8565 11.3839C29.5926 10.9799 30.4248 10.7833 31.2641 10.8149C35.7403 10.8149 36.5643 13.7563 36.5643 17.5776V25.3635H32.1501V18.4607C32.1501 16.813 32.1198 14.695 29.8511 14.695C27.5567 14.695 27.2026 16.4892 27.2026 18.3408V25.3616H22.7885L22.7853 11.168ZM62.9273 16.6141C62.9357 16.2564 62.8714 15.9008 62.7381 15.5687C62.6049 15.2366 62.4056 14.9349 62.1522 14.682C61.8988 14.4291 61.5966 14.2302 61.264 14.0974C60.9314 13.9646 60.5753 13.9005 60.2172 13.9092C59.4459 13.8613 58.6867 14.118 58.1032 14.624C57.5197 15.13 57.1586 15.8447 57.0979 16.6141H62.9273ZM66.6664 22.9056C65.9329 23.794 65.0108 24.5084 63.9667 24.9969C62.9227 25.4855 61.783 25.736 60.6301 25.7304C56.216 25.7304 52.6819 22.7876 52.6819 18.2306C52.6819 13.6736 56.2155 10.7322 60.6301 10.7322C64.7559 10.7322 67.3432 13.6713 67.3432 18.2306V19.6129H57.0979C57.2254 20.3969 57.6323 21.1084 58.2437 21.6163C58.855 22.1243 59.6295 22.3944 60.4245 22.3771C61.0528 22.3732 61.6702 22.2124 62.2204 21.9094C62.7705 21.6063 63.2361 21.1707 63.5747 20.6421L66.6664 22.9056ZM76.544 14.5985C74.3369 14.5985 73.0126 16.0704 73.0126 18.215C73.0126 20.3596 74.3364 21.8329 76.544 21.8329C78.7515 21.8329 80.0785 20.3633 80.0785 18.215C80.0785 16.0667 78.7538 14.5985 76.544 14.5985ZM84.1423 25.3616H80.0785V23.4788H80.0183C79.5085 24.1636 78.8472 24.7217 78.086 25.1094C77.3248 25.4972 76.4843 25.7042 75.6299 25.7143C71.3886 25.7143 68.5948 22.6572 68.5948 18.3339C68.5948 14.3634 71.0672 10.7175 75.1314 10.7175C76.9582 10.7175 78.6646 11.2167 79.6656 12.6004H79.7235V4.41636H84.1418L84.1423 25.3616ZM113.942 25.3699H109.528V18.4657C109.528 16.8194 109.498 14.7 107.232 14.7C104.933 14.7 104.581 16.4938 104.581 18.3459V25.3694H100.167V11.1717H104.405V13.112H104.464C104.888 12.3878 105.501 11.792 106.237 11.3882C106.973 10.9843 107.805 10.7874 108.645 10.8186C113.119 10.8186 113.944 13.7577 113.944 17.5812L113.942 25.3699ZM95.1864 9.23098C94.6797 9.23107 94.1844 9.08111 93.7631 8.80006C93.3418 8.51902 93.0135 8.11951 92.8195 7.65206C92.6255 7.1846 92.5747 6.67021 92.6734 6.17391C92.7722 5.67761 93.0161 5.2217 93.3743 4.86384C93.7325 4.50598 94.1888 4.26223 94.6857 4.16342C95.1826 4.06462 95.6976 4.11519 96.1657 4.30875C96.6339 4.5023 97.034 4.83015 97.3155 5.25082C97.5971 5.6715 97.7474 6.16611 97.7475 6.67212C97.7475 7.00809 97.6813 7.34079 97.5527 7.65121C97.424 7.96163 97.2354 8.2437 96.9975 8.48131C96.7597 8.71892 96.4773 8.90742 96.1666 9.03605C95.8558 9.16468 95.5227 9.23091 95.1864 9.23098ZM97.3934 25.3699H92.9747V11.1717H97.3934V25.3699ZM116.142 0.0200935H90.7566C90.1804 0.0135993 89.6252 0.23584 89.213 0.637979C88.8008 1.04012 88.5653 1.58926 88.5583 2.16472V27.6243C88.5651 28.2 88.8004 28.7495 89.2126 29.1521C89.6248 29.5546 90.1801 29.7773 90.7566 29.7712H116.142C116.72 29.7784 117.277 29.5564 117.691 29.1538C118.105 28.7513 118.342 28.2012 118.35 27.6243V2.16289C118.341 1.58628 118.104 1.03652 117.69 0.634386C117.277 0.232257 116.72 0.0106511 116.142 0.0182559M121.74 25.9242C121.203 25.9293 120.69 26.1467 120.312 26.5287C119.935 26.9107 119.725 27.4263 119.728 27.9628C119.73 28.4992 119.946 29.0127 120.326 29.3911C120.707 29.7695 121.222 29.9819 121.759 29.9819C122.296 29.9819 122.812 29.7695 123.192 29.3911C123.573 29.0127 123.788 28.4992 123.791 27.9628C123.793 27.4263 123.583 26.9107 123.206 26.5287C122.829 26.1467 122.316 25.9293 121.779 25.9242H121.74ZM121.74 29.7496C121.387 29.7555 121.041 29.6569 120.745 29.4663C120.449 29.2757 120.216 29.0017 120.076 28.6789C119.936 28.3561 119.894 27.999 119.957 27.6528C120.02 27.3066 120.185 26.9868 120.43 26.7339C120.675 26.481 120.989 26.3063 121.334 26.2319C121.678 26.1575 122.037 26.1868 122.364 26.316C122.692 26.4452 122.974 26.6686 123.174 26.9579C123.375 27.2471 123.485 27.5893 123.491 27.9411C123.491 27.9512 123.491 27.9609 123.491 27.971C123.501 28.4325 123.327 28.8791 123.007 29.2124C122.687 29.5458 122.248 29.7387 121.786 29.7487H121.74" fill="#E8E8E8"/>
<path d="M122.062 28.0817C122.138 28.0824 122.213 28.0677 122.282 28.0383C122.352 28.0089 122.415 27.9655 122.467 27.9109C122.519 27.8563 122.559 27.7915 122.585 27.7206C122.612 27.6497 122.623 27.5743 122.618 27.4989C122.618 27.0856 122.369 26.8881 121.856 26.8881H121.029V29.052H121.34V28.1088H121.723L121.731 28.1202L122.325 29.052H122.658L122.019 28.0876L122.062 28.0817ZM121.702 27.8649H121.341V27.1334H121.799C122.035 27.1334 122.304 27.1719 122.304 27.481C122.304 27.8364 122.032 27.8649 121.7 27.8649M0.790894 4.42096H5.38574V21.1371H13.8922V25.3722H0.790894V4.42096ZM15.9236 11.1666H20.3377V25.3644H15.9236V11.1666ZM18.1306 4.1082C18.6371 4.10829 19.1321 4.25836 19.5531 4.53944C19.9742 4.82051 20.3023 5.21997 20.496 5.6873C20.6898 6.15462 20.7404 6.66883 20.6416 7.16491C20.5427 7.66098 20.2988 8.11663 19.9407 8.47426C19.5826 8.83188 19.1263 9.07541 18.6296 9.17406C18.1329 9.2727 17.618 9.22203 17.1501 9.02844C16.6823 8.83486 16.2824 8.50706 16.001 8.08649C15.7197 7.66593 15.5695 7.17148 15.5695 6.66568C15.5695 6.32979 15.6358 5.99719 15.7645 5.68687C15.8932 5.37655 16.0819 5.0946 16.3197 4.85711C16.5575 4.61962 16.8399 4.43125 17.1506 4.30275C17.4613 4.17425 17.7943 4.10814 18.1306 4.1082ZM38.8026 4.41774H43.2167V16.9388L48.2194 11.1602H53.6314L47.8378 17.7333L53.5095 25.3703H47.9615L43.2756 18.3523H43.2177V25.3694H38.8035L38.8026 4.41774ZM22.7853 11.168H27.0242V13.1083H27.0844C27.5078 12.3838 28.1203 11.7878 28.8565 11.3839C29.5926 10.9799 30.4248 10.7833 31.2641 10.8149C35.7403 10.8149 36.5643 13.7563 36.5643 17.5776V25.3635H32.1501V18.4607C32.1501 16.813 32.1198 14.695 29.8511 14.695C27.5567 14.695 27.2026 16.4892 27.2026 18.3408V25.3616H22.7885L22.7853 11.168ZM62.9273 16.6141C62.9357 16.2564 62.8714 15.9008 62.7381 15.5687C62.6049 15.2366 62.4056 14.9349 62.1522 14.682C61.8988 14.4291 61.5966 14.2302 61.264 14.0974C60.9314 13.9646 60.5753 13.9005 60.2172 13.9092C59.4459 13.8613 58.6867 14.118 58.1032 14.624C57.5197 15.13 57.1586 15.8447 57.0979 16.6141H62.9273ZM66.6664 22.9056C65.9329 23.794 65.0108 24.5084 63.9667 24.9969C62.9227 25.4855 61.783 25.736 60.6301 25.7304C56.216 25.7304 52.6819 22.7876 52.6819 18.2306C52.6819 13.6736 56.2155 10.7322 60.6301 10.7322C64.7559 10.7322 67.3432 13.6713 67.3432 18.2306V19.6129H57.0979C57.2254 20.3969 57.6323 21.1084 58.2437 21.6163C58.855 22.1243 59.6295 22.3944 60.4245 22.3771C61.0528 22.3732 61.6702 22.2124 62.2204 21.9094C62.7705 21.6063 63.2361 21.1707 63.5747 20.6421L66.6664 22.9056ZM76.544 14.5985C74.3369 14.5985 73.0126 16.0704 73.0126 18.215C73.0126 20.3596 74.3364 21.8329 76.544 21.8329C78.7515 21.8329 80.0785 20.3633 80.0785 18.215C80.0785 16.0667 78.7538 14.5985 76.544 14.5985ZM84.1423 25.3616H80.0785V23.4788H80.0183C79.5085 24.1636 78.8472 24.7217 78.086 25.1094C77.3248 25.4972 76.4843 25.7042 75.6299 25.7143C71.3886 25.7143 68.5948 22.6572 68.5948 18.3339C68.5948 14.3634 71.0672 10.7175 75.1314 10.7175C76.9582 10.7175 78.6646 11.2167 79.6656 12.6004H79.7235V4.41636H84.1418L84.1423 25.3616ZM113.942 25.3699H109.528V18.4657C109.528 16.8194 109.498 14.7 107.232 14.7C104.933 14.7 104.581 16.4938 104.581 18.3459V25.3694H100.167V11.1717H104.405V13.112H104.464C104.888 12.3878 105.501 11.792 106.237 11.3882C106.973 10.9843 107.805 10.7874 108.645 10.8186C113.119 10.8186 113.944 13.7577 113.944 17.5812L113.942 25.3699ZM95.1864 9.23098C94.6797 9.23107 94.1844 9.08111 93.7631 8.80006C93.3418 8.51902 93.0135 8.11951 92.8195 7.65206C92.6255 7.1846 92.5747 6.67021 92.6734 6.17391C92.7722 5.67761 93.0161 5.2217 93.3743 4.86384C93.7325 4.50598 94.1888 4.26223 94.6857 4.16342C95.1826 4.06462 95.6976 4.11519 96.1657 4.30875C96.6339 4.5023 97.034 4.83015 97.3155 5.25082C97.5971 5.6715 97.7474 6.16611 97.7475 6.67212C97.7475 7.00809 97.6813 7.34079 97.5527 7.65121C97.424 7.96163 97.2354 8.2437 96.9975 8.48131C96.7597 8.71892 96.4773 8.90742 96.1666 9.03605C95.8558 9.16468 95.5227 9.23091 95.1864 9.23098ZM97.3934 25.3699H92.9747V11.1717H97.3934V25.3699ZM116.142 0.0200935H90.7566C90.1804 0.0135993 89.6252 0.23584 89.213 0.637979C88.8008 1.04012 88.5653 1.58926 88.5583 2.16472V27.6243C88.5651 28.2 88.8004 28.7495 89.2126 29.1521C89.6248 29.5546 90.1801 29.7773 90.7566 29.7712H116.142C116.72 29.7784 117.277 29.5564 117.691 29.1538C118.105 28.7513 118.342 28.2012 118.35 27.6243V2.16289C118.341 1.58628 118.104 1.03652 117.69 0.634386C117.277 0.232257 116.72 0.0106511 116.142 0.0182559M121.74 25.9242C121.203 25.9293 120.69 26.1467 120.312 26.5287C119.935 26.9107 119.725 27.4263 119.728 27.9628C119.73 28.4992 119.946 29.0127 120.326 29.3911C120.707 29.7695 121.222 29.9819 121.759 29.9819C122.296 29.9819 122.812 29.7695 123.192 29.3911C123.573 29.0127 123.788 28.4992 123.791 27.9628C123.793 27.4263 123.583 26.9107 123.206 26.5287C122.829 26.1467 122.316 25.9293 121.779 25.9242H121.74ZM121.74 29.7496C121.387 29.7555 121.041 29.6569 120.745 29.4663C120.449 29.2757 120.216 29.0017 120.076 28.6789C119.936 28.3561 119.894 27.999 119.957 27.6528C120.02 27.3066 120.185 26.9868 120.43 26.7339C120.675 26.481 120.989 26.3063 121.334 26.2319C121.678 26.1575 122.037 26.1868 122.364 26.316C122.692 26.4452 122.974 26.6686 123.174 26.9579C123.375 27.2471 123.485 27.5893 123.491 27.9411C123.491 27.9512 123.491 27.9609 123.491 27.971C123.501 28.4325 123.327 28.8791 123.007 29.2124C122.687 29.5458 122.248 29.7387 121.786 29.7487H121.74" fill="#E8E8E8"/>
<path d="M122.062 28.0817C122.138 28.0824 122.213 28.0677 122.282 28.0383C122.352 28.0089 122.415 27.9655 122.467 27.9109C122.519 27.8563 122.559 27.7915 122.585 27.7206C122.612 27.6497 122.623 27.5743 122.618 27.4989C122.618 27.0856 122.369 26.8881 121.856 26.8881H121.029V29.052H121.34V28.1088H121.723L121.731 28.1202L122.325 29.052H122.658L122.019 28.0876L122.062 28.0817ZM121.702 27.8649H121.341V27.1334H121.799C122.035 27.1334 122.304 27.1719 122.304 27.481C122.304 27.8364 122.032 27.8649 121.7 27.8649M0.790894 4.42096H5.38574V21.1371H13.8922V25.3722H0.790894V4.42096ZM15.9236 11.1666H20.3377V25.3644H15.9236V11.1666ZM18.1306 4.1082C18.6371 4.10829 19.1321 4.25836 19.5531 4.53944C19.9742 4.82051 20.3023 5.21997 20.496 5.6873C20.6898 6.15462 20.7404 6.66883 20.6416 7.16491C20.5427 7.66098 20.2988 8.11663 19.9407 8.47426C19.5826 8.83188 19.1263 9.07541 18.6296 9.17406C18.1329 9.2727 17.618 9.22203 17.1501 9.02844C16.6823 8.83486 16.2824 8.50706 16.001 8.08649C15.7197 7.66593 15.5695 7.17148 15.5695 6.66568C15.5695 6.32979 15.6358 5.99719 15.7645 5.68687C15.8932 5.37655 16.0819 5.0946 16.3197 4.85711C16.5575 4.61962 16.8399 4.43125 17.1506 4.30275C17.4613 4.17425 17.7943 4.10814 18.1306 4.1082ZM38.8026 4.41774H43.2167V16.9388L48.2194 11.1602H53.6314L47.8378 17.7333L53.5095 25.3703H47.9615L43.2756 18.3523H43.2177V25.3694H38.8035L38.8026 4.41774ZM22.7853 11.168H27.0242V13.1083H27.0844C27.5078 12.3838 28.1203 11.7878 28.8565 11.3839C29.5926 10.9799 30.4248 10.7833 31.2641 10.8149C35.7403 10.8149 36.5643 13.7563 36.5643 17.5776V25.3635H32.1501V18.4607C32.1501 16.813 32.1198 14.695 29.8511 14.695C27.5567 14.695 27.2026 16.4892 27.2026 18.3408V25.3616H22.7885L22.7853 11.168ZM62.9273 16.6141C62.9357 16.2564 62.8714 15.9008 62.7381 15.5687C62.6049 15.2366 62.4056 14.9349 62.1522 14.682C61.8988 14.4291 61.5966 14.2302 61.264 14.0974C60.9314 13.9646 60.5753 13.9005 60.2172 13.9092C59.4459 13.8613 58.6867 14.118 58.1032 14.624C57.5197 15.13 57.1586 15.8447 57.0979 16.6141H62.9273ZM66.6664 22.9056C65.9329 23.794 65.0108 24.5084 63.9667 24.9969C62.9227 25.4855 61.783 25.736 60.6301 25.7304C56.216 25.7304 52.6819 22.7876 52.6819 18.2306C52.6819 13.6736 56.2155 10.7322 60.6301 10.7322C64.7559 10.7322 67.3432 13.6713 67.3432 18.2306V19.6129H57.0979C57.2254 20.3969 57.6323 21.1084 58.2437 21.6163C58.855 22.1243 59.6295 22.3944 60.4245 22.3771C61.0528 22.3732 61.6702 22.2124 62.2204 21.9094C62.7705 21.6063 63.2361 21.1707 63.5747 20.6421L66.6664 22.9056ZM76.544 14.5985C74.3369 14.5985 73.0126 16.0704 73.0126 18.215C73.0126 20.3596 74.3364 21.8329 76.544 21.8329C78.7515 21.8329 80.0785 20.3633 80.0785 18.215C80.0785 16.0667 78.7538 14.5985 76.544 14.5985ZM84.1423 25.3616H80.0785V23.4788H80.0183C79.5085 24.1636 78.8472 24.7217 78.086 25.1094C77.3248 25.4972 76.4843 25.7042 75.6299 25.7143C71.3886 25.7143 68.5948 22.6572 68.5948 18.3339C68.5948 14.3634 71.0672 10.7175 75.1314 10.7175C76.9582 10.7175 78.6646 11.2167 79.6656 12.6004H79.7235V4.41636H84.1418L84.1423 25.3616ZM113.942 25.3699H109.528V18.4657C109.528 16.8194 109.498 14.7 107.232 14.7C104.933 14.7 104.581 16.4938 104.581 18.3459V25.3694H100.167V11.1717H104.405V13.112H104.464C104.888 12.3878 105.501 11.792 106.237 11.3882C106.973 10.9843 107.805 10.7874 108.645 10.8186C113.119 10.8186 113.944 13.7577 113.944 17.5812L113.942 25.3699ZM95.1864 9.23098C94.6797 9.23107 94.1844 9.08111 93.7631 8.80006C93.3418 8.51902 93.0135 8.11951 92.8195 7.65206C92.6255 7.1846 92.5747 6.67021 92.6734 6.17391C92.7722 5.67761 93.0161 5.2217 93.3743 4.86384C93.7325 4.50598 94.1888 4.26223 94.6857 4.16342C95.1826 4.06462 95.6976 4.11519 96.1657 4.30875C96.6339 4.5023 97.034 4.83015 97.3155 5.25082C97.5971 5.6715 97.7474 6.16611 97.7475 6.67212C97.7475 7.00809 97.6813 7.34079 97.5527 7.65121C97.424 7.96163 97.2354 8.2437 96.9975 8.48131C96.7597 8.71892 96.4773 8.90742 96.1666 9.03605C95.8558 9.16468 95.5227 9.23091 95.1864 9.23098ZM97.3934 25.3699H92.9747V11.1717H97.3934V25.3699ZM116.142 0.0200935H90.7566C90.1804 0.0135993 89.6252 0.23584 89.213 0.637979C88.8008 1.04012 88.5653 1.58926 88.5583 2.16472V27.6243C88.5651 28.2 88.8004 28.7495 89.2126 29.1521C89.6248 29.5546 90.1801 29.7773 90.7566 29.7712H116.142C116.72 29.7784 117.277 29.5564 117.691 29.1538C118.105 28.7513 118.342 28.2012 118.35 27.6243V2.16289C118.341 1.58628 118.104 1.03652 117.69 0.634386C117.277 0.232257 116.72 0.0106511 116.142 0.0182559M121.74 25.9242C121.203 25.9293 120.69 26.1467 120.312 26.5287C119.935 26.9107 119.725 27.4263 119.728 27.9628C119.73 28.4992 119.946 29.0127 120.326 29.3911C120.707 29.7695 121.222 29.9819 121.759 29.9819C122.296 29.9819 122.812 29.7695 123.192 29.3911C123.573 29.0127 123.788 28.4992 123.791 27.9628C123.793 27.4263 123.583 26.9107 123.206 26.5287C122.829 26.1467 122.316 25.9293 121.779 25.9242H121.74ZM121.74 29.7496C121.387 29.7555 121.041 29.6569 120.745 29.4663C120.449 29.2757 120.216 29.0017 120.076 28.6789C119.936 28.3561 119.894 27.999 119.957 27.6528C120.02 27.3066 120.185 26.9868 120.43 26.7339C120.675 26.481 120.989 26.3063 121.334 26.2319C121.678 26.1575 122.037 26.1868 122.364 26.316C122.692 26.4452 122.974 26.6686 123.174 26.9579C123.375 27.2471 123.485 27.5893 123.491 27.9411C123.491 27.9512 123.491 27.9609 123.491 27.971C123.501 28.4325 123.327 28.8791 123.007 29.2124C122.687 29.5458 122.248 29.7387 121.786 29.7487H121.74" fill="#E8E8E8"/>
<path d="M122.062 28.0817C122.138 28.0824 122.213 28.0677 122.282 28.0383C122.352 28.0089 122.415 27.9655 122.467 27.9109C122.519 27.8563 122.559 27.7915 122.585 27.7206C122.612 27.6497 122.623 27.5743 122.618 27.4989C122.618 27.0856 122.369 26.8881 121.856 26.8881H121.029V29.052H121.34V28.1088H121.723L121.731 28.1202L122.325 29.052H122.658L122.019 28.0876L122.062 28.0817ZM121.702 27.8649H121.341V27.1334H121.799C122.035 27.1334 122.304 27.1719 122.304 27.481C122.304 27.8364 122.032 27.8649 121.7 27.8649M0.790894 4.42096H5.38574V21.1371H13.8922V25.3722H0.790894V4.42096ZM15.9236 11.1666H20.3377V25.3644H15.9236V11.1666ZM18.1306 4.1082C18.6371 4.10829 19.1321 4.25836 19.5531 4.53944C19.9742 4.82051 20.3023 5.21997 20.496 5.6873C20.6898 6.15462 20.7404 6.66883 20.6416 7.16491C20.5427 7.66098 20.2988 8.11663 19.9407 8.47426C19.5826 8.83188 19.1263 9.07541 18.6296 9.17406C18.1329 9.2727 17.618 9.22203 17.1501 9.02844C16.6823 8.83486 16.2824 8.50706 16.001 8.08649C15.7197 7.66593 15.5695 7.17148 15.5695 6.66568C15.5695 6.32979 15.6358 5.99719 15.7645 5.68687C15.8932 5.37655 16.0819 5.0946 16.3197 4.85711C16.5575 4.61962 16.8399 4.43125 17.1506 4.30275C17.4613 4.17425 17.7943 4.10814 18.1306 4.1082ZM38.8026 4.41774H43.2167V16.9388L48.2194 11.1602H53.6314L47.8378 17.7333L53.5095 25.3703H47.9615L43.2756 18.3523H43.2177V25.3694H38.8035L38.8026 4.41774ZM22.7853 11.168H27.0242V13.1083H27.0844C27.5078 12.3838 28.1203 11.7878 28.8565 11.3839C29.5926 10.9799 30.4248 10.7833 31.2641 10.8149C35.7403 10.8149 36.5643 13.7563 36.5643 17.5776V25.3635H32.1501V18.4607C32.1501 16.813 32.1198 14.695 29.8511 14.695C27.5567 14.695 27.2026 16.4892 27.2026 18.3408V25.3616H22.7885L22.7853 11.168ZM62.9273 16.6141C62.9357 16.2564 62.8714 15.9008 62.7381 15.5687C62.6049 15.2366 62.4056 14.9349 62.1522 14.682C61.8988 14.4291 61.5966 14.2302 61.264 14.0974C60.9314 13.9646 60.5753 13.9005 60.2172 13.9092C59.4459 13.8613 58.6867 14.118 58.1032 14.624C57.5197 15.13 57.1586 15.8447 57.0979 16.6141H62.9273ZM66.6664 22.9056C65.9329 23.794 65.0108 24.5084 63.9667 24.9969C62.9227 25.4855 61.783 25.736 60.6301 25.7304C56.216 25.7304 52.6819 22.7876 52.6819 18.2306C52.6819 13.6736 56.2155 10.7322 60.6301 10.7322C64.7559 10.7322 67.3432 13.6713 67.3432 18.2306V19.6129H57.0979C57.2254 20.3969 57.6323 21.1084 58.2437 21.6163C58.855 22.1243 59.6295 22.3944 60.4245 22.3771C61.0528 22.3732 61.6702 22.2124 62.2204 21.9094C62.7705 21.6063 63.2361 21.1707 63.5747 20.6421L66.6664 22.9056ZM76.544 14.5985C74.3369 14.5985 73.0126 16.0704 73.0126 18.215C73.0126 20.3596 74.3364 21.8329 76.544 21.8329C78.7515 21.8329 80.0785 20.3633 80.0785 18.215C80.0785 16.0667 78.7538 14.5985 76.544 14.5985ZM84.1423 25.3616H80.0785V23.4788H80.0183C79.5085 24.1636 78.8472 24.7217 78.086 25.1094C77.3248 25.4972 76.4843 25.7042 75.6299 25.7143C71.3886 25.7143 68.5948 22.6572 68.5948 18.3339C68.5948 14.3634 71.0672 10.7175 75.1314 10.7175C76.9582 10.7175 78.6646 11.2167 79.6656 12.6004H79.7235V4.41636H84.1418L84.1423 25.3616ZM113.942 25.3699H109.528V18.4657C109.528 16.8194 109.498 14.7 107.232 14.7C104.933 14.7 104.581 16.4938 104.581 18.3459V25.3694H100.167V11.1717H104.405V13.112H104.464C104.888 12.3878 105.501 11.792 106.237 11.3882C106.973 10.9843 107.805 10.7874 108.645 10.8186C113.119 10.8186 113.944 13.7577 113.944 17.5812L113.942 25.3699ZM95.1864 9.23098C94.6797 9.23107 94.1844 9.08111 93.7631 8.80006C93.3418 8.51902 93.0135 8.11951 92.8195 7.65206C92.6255 7.1846 92.5747 6.67021 92.6734 6.17391C92.7722 5.67761 93.0161 5.2217 93.3743 4.86384C93.7325 4.50598 94.1888 4.26223 94.6857 4.16342C95.1826 4.06462 95.6976 4.11519 96.1657 4.30875C96.6339 4.5023 97.034 4.83015 97.3155 5.25082C97.5971 5.6715 97.7474 6.16611 97.7475 6.67212C97.7475 7.00809 97.6813 7.34079 97.5527 7.65121C97.424 7.96163 97.2354 8.2437 96.9975 8.48131C96.7597 8.71892 96.4773 8.90742 96.1666 9.03605C95.8558 9.16468 95.5227 9.23091 95.1864 9.23098ZM97.3934 25.3699H92.9747V11.1717H97.3934V25.3699ZM116.142 0.0200935H90.7566C90.1804 0.0135993 89.6252 0.23584 89.213 0.637979C88.8008 1.04012 88.5653 1.58926 88.5583 2.16472V27.6243C88.5651 28.2 88.8004 28.7495 89.2126 29.1521C89.6248 29.5546 90.1801 29.7773 90.7566 29.7712H116.142C116.72 29.7784 117.277 29.5564 117.691 29.1538C118.105 28.7513 118.342 28.2012 118.35 27.6243V2.16289C118.341 1.58628 118.104 1.03652 117.69 0.634386C117.277 0.232257 116.72 0.0106511 116.142 0.0182559M121.74 25.9242C121.203 25.9293 120.69 26.1467 120.312 26.5287C119.935 26.9107 119.725 27.4263 119.728 27.9628C119.73 28.4992 119.946 29.0127 120.326 29.3911C120.707 29.7695 121.222 29.9819 121.759 29.9819C122.296 29.9819 122.812 29.7695 123.192 29.3911C123.573 29.0127 123.788 28.4992 123.791 27.9628C123.793 27.4263 123.583 26.9107 123.206 26.5287C122.829 26.1467 122.316 25.9293 121.779 25.9242H121.74ZM121.74 29.7496C121.387 29.7555 121.041 29.6569 120.745 29.4663C120.449 29.2757 120.216 29.0017 120.076 28.6789C119.936 28.3561 119.894 27.999 119.957 27.6528C120.02 27.3066 120.185 26.9868 120.43 26.7339C120.675 26.481 120.989 26.3063 121.334 26.2319C121.678 26.1575 122.037 26.1868 122.364 26.316C122.692 26.4452 122.974 26.6686 123.174 26.9579C123.375 27.2471 123.485 27.5893 123.491 27.9411C123.491 27.9512 123.491 27.9609 123.491 27.971C123.501 28.4325 123.327 28.8791 123.007 29.2124C122.687 29.5458 122.248 29.7387 121.786 29.7487H121.74" fill="#E8E8E8"/>
<path d="M122.062 28.0817C122.138 28.0824 122.213 28.0677 122.282 28.0383C122.352 28.0089 122.415 27.9655 122.467 27.9109C122.519 27.8563 122.559 27.7915 122.585 27.7206C122.612 27.6497 122.623 27.5743 122.618 27.4989C122.618 27.0856 122.369 26.8881 121.856 26.8881H121.029V29.052H121.34V28.1088H121.723L121.731 28.1202L122.325 29.052H122.658L122.019 28.0876L122.062 28.0817ZM121.702 27.8649H121.341V27.1334H121.799C122.035 27.1334 122.304 27.1719 122.304 27.481C122.304 27.8364 122.032 27.8649 121.7 27.8649M0.790894 4.42096H5.38574V21.1371H13.8922V25.3722H0.790894V4.42096ZM15.9236 11.1666H20.3377V25.3644H15.9236V11.1666ZM18.1306 4.1082C18.6371 4.10829 19.1321 4.25836 19.5531 4.53944C19.9742 4.82051 20.3023 5.21997 20.496 5.6873C20.6898 6.15462 20.7404 6.66883 20.6416 7.16491C20.5427 7.66098 20.2988 8.11663 19.9407 8.47426C19.5826 8.83188 19.1263 9.07541 18.6296 9.17406C18.1329 9.2727 17.618 9.22203 17.1501 9.02844C16.6823 8.83486 16.2824 8.50706 16.001 8.08649C15.7197 7.66593 15.5695 7.17148 15.5695 6.66568C15.5695 6.32979 15.6358 5.99719 15.7645 5.68687C15.8932 5.37655 16.0819 5.0946 16.3197 4.85711C16.5575 4.61962 16.8399 4.43125 17.1506 4.30275C17.4613 4.17425 17.7943 4.10814 18.1306 4.1082ZM38.8026 4.41774H43.2167V16.9388L48.2194 11.1602H53.6314L47.8378 17.7333L53.5095 25.3703H47.9615L43.2756 18.3523H43.2177V25.3694H38.8035L38.8026 4.41774ZM22.7853 11.168H27.0242V13.1083H27.0844C27.5078 12.3838 28.1203 11.7878 28.8565 11.3839C29.5926 10.9799 30.4248 10.7833 31.2641 10.8149C35.7403 10.8149 36.5643 13.7563 36.5643 17.5776V25.3635H32.1501V18.4607C32.1501 16.813 32.1198 14.695 29.8511 14.695C27.5567 14.695 27.2026 16.4892 27.2026 18.3408V25.3616H22.7885L22.7853 11.168ZM62.9273 16.6141C62.9357 16.2564 62.8714 15.9008 62.7381 15.5687C62.6049 15.2366 62.4056 14.9349 62.1522 14.682C61.8988 14.4291 61.5966 14.2302 61.264 14.0974C60.9314 13.9646 60.5753 13.9005 60.2172 13.9092C59.4459 13.8613 58.6867 14.118 58.1032 14.624C57.5197 15.13 57.1586 15.8447 57.0979 16.6141H62.9273ZM66.6664 22.9056C65.9329 23.794 65.0108 24.5084 63.9667 24.9969C62.9227 25.4855 61.783 25.736 60.6301 25.7304C56.216 25.7304 52.6819 22.7876 52.6819 18.2306C52.6819 13.6736 56.2155 10.7322 60.6301 10.7322C64.7559 10.7322 67.3432 13.6713 67.3432 18.2306V19.6129H57.0979C57.2254 20.3969 57.6323 21.1084 58.2437 21.6163C58.855 22.1243 59.6295 22.3944 60.4245 22.3771C61.0528 22.3732 61.6702 22.2124 62.2204 21.9094C62.7705 21.6063 63.2361 21.1707 63.5747 20.6421L66.6664 22.9056ZM76.544 14.5985C74.3369 14.5985 73.0126 16.0704 73.0126 18.215C73.0126 20.3596 74.3364 21.8329 76.544 21.8329C78.7515 21.8329 80.0785 20.3633 80.0785 18.215C80.0785 16.0667 78.7538 14.5985 76.544 14.5985ZM84.1423 25.3616H80.0785V23.4788H80.0183C79.5085 24.1636 78.8472 24.7217 78.086 25.1094C77.3248 25.4972 76.4843 25.7042 75.6299 25.7143C71.3886 25.7143 68.5948 22.6572 68.5948 18.3339C68.5948 14.3634 71.0672 10.7175 75.1314 10.7175C76.9582 10.7175 78.6646 11.2167 79.6656 12.6004H79.7235V4.41636H84.1418L84.1423 25.3616ZM113.942 25.3699H109.528V18.4657C109.528 16.8194 109.498 14.7 107.232 14.7C104.933 14.7 104.581 16.4938 104.581 18.3459V25.3694H100.167V11.1717H104.405V13.112H104.464C104.888 12.3878 105.501 11.792 106.237 11.3882C106.973 10.9843 107.805 10.7874 108.645 10.8186C113.119 10.8186 113.944 13.7577 113.944 17.5812L113.942 25.3699ZM95.1864 9.23098C94.6797 9.23107 94.1844 9.08111 93.7631 8.80006C93.3418 8.51902 93.0135 8.11951 92.8195 7.65206C92.6255 7.1846 92.5747 6.67021 92.6734 6.17391C92.7722 5.67761 93.0161 5.2217 93.3743 4.86384C93.7325 4.50598 94.1888 4.26223 94.6857 4.16342C95.1826 4.06462 95.6976 4.11519 96.1657 4.30875C96.6339 4.5023 97.034 4.83015 97.3155 5.25082C97.5971 5.6715 97.7474 6.16611 97.7475 6.67212C97.7475 7.00809 97.6813 7.34079 97.5527 7.65121C97.424 7.96163 97.2354 8.2437 96.9975 8.48131C96.7597 8.71892 96.4773 8.90742 96.1666 9.03605C95.8558 9.16468 95.5227 9.23091 95.1864 9.23098ZM97.3934 25.3699H92.9747V11.1717H97.3934V25.3699ZM116.142 0.0200935H90.7566C90.1804 0.0135993 89.6252 0.23584 89.213 0.637979C88.8008 1.04012 88.5653 1.58926 88.5583 2.16472V27.6243C88.5651 28.2 88.8004 28.7495 89.2126 29.1521C89.6248 29.5546 90.1801 29.7773 90.7566 29.7712H116.142C116.72 29.7784 117.277 29.5564 117.691 29.1538C118.105 28.7513 118.342 28.2012 118.35 27.6243V2.16289C118.341 1.58628 118.104 1.03652 117.69 0.634386C117.277 0.232257 116.72 0.0106511 116.142 0.0182559M121.74 25.9242C121.203 25.9293 120.69 26.1467 120.312 26.5287C119.935 26.9107 119.725 27.4263 119.728 27.9628C119.73 28.4992 119.946 29.0127 120.326 29.3911C120.707 29.7695 121.222 29.9819 121.759 29.9819C122.296 29.9819 122.812 29.7695 123.192 29.3911C123.573 29.0127 123.788 28.4992 123.791 27.9628C123.793 27.4263 123.583 26.9107 123.206 26.5287C122.829 26.1467 122.316 25.9293 121.779 25.9242H121.74ZM121.74 29.7496C121.387 29.7555 121.041 29.6569 120.745 29.4663C120.449 29.2757 120.216 29.0017 120.076 28.6789C119.936 28.3561 119.894 27.999 119.957 27.6528C120.02 27.3066 120.185 26.9868 120.43 26.7339C120.675 26.481 120.989 26.3063 121.334 26.2319C121.678 26.1575 122.037 26.1868 122.364 26.316C122.692 26.4452 122.974 26.6686 123.174 26.9579C123.375 27.2471 123.485 27.5893 123.491 27.9411C123.491 27.9512 123.491 27.9609 123.491 27.971C123.501 28.4325 123.327 28.8791 123.007 29.2124C122.687 29.5458 122.248 29.7387 121.786 29.7487H121.74" fill="#E8E8E8"/>
<path d="M122.062 28.0817C122.138 28.0824 122.213 28.0677 122.282 28.0383C122.352 28.0089 122.415 27.9655 122.467 27.9109C122.519 27.8563 122.559 27.7915 122.585 27.7206C122.612 27.6497 122.623 27.5743 122.618 27.4989C122.618 27.0856 122.369 26.8881 121.856 26.8881H121.029V29.052H121.34V28.1088H121.723L121.731 28.1202L122.325 29.052H122.658L122.019 28.0876L122.062 28.0817ZM121.702 27.8649H121.341V27.1334H121.799C122.035 27.1334 122.304 27.1719 122.304 27.481C122.304 27.8364 122.032 27.8649 121.7 27.8649M0.790894 4.42096H5.38574V21.1371H13.8922V25.3722H0.790894V4.42096ZM15.9236 11.1666H20.3377V25.3644H15.9236V11.1666ZM18.1306 4.1082C18.6371 4.10829 19.1321 4.25836 19.5531 4.53944C19.9742 4.82051 20.3023 5.21997 20.496 5.6873C20.6898 6.15462 20.7404 6.66883 20.6416 7.16491C20.5427 7.66098 20.2988 8.11663 19.9407 8.47426C19.5826 8.83188 19.1263 9.07541 18.6296 9.17406C18.1329 9.2727 17.618 9.22203 17.1501 9.02844C16.6823 8.83486 16.2824 8.50706 16.001 8.08649C15.7197 7.66593 15.5695 7.17148 15.5695 6.66568C15.5695 6.32979 15.6358 5.99719 15.7645 5.68687C15.8932 5.37655 16.0819 5.0946 16.3197 4.85711C16.5575 4.61962 16.8399 4.43125 17.1506 4.30275C17.4613 4.17425 17.7943 4.10814 18.1306 4.1082ZM38.8026 4.41774H43.2167V16.9388L48.2194 11.1602H53.6314L47.8378 17.7333L53.5095 25.3703H47.9615L43.2756 18.3523H43.2177V25.3694H38.8035L38.8026 4.41774ZM22.7853 11.168H27.0242V13.1083H27.0844C27.5078 12.3838 28.1203 11.7878 28.8565 11.3839C29.5926 10.9799 30.4248 10.7833 31.2641 10.8149C35.7403 10.8149 36.5643 13.7563 36.5643 17.5776V25.3635H32.1501V18.4607C32.1501 16.813 32.1198 14.695 29.8511 14.695C27.5567 14.695 27.2026 16.4892 27.2026 18.3408V25.3616H22.7885L22.7853 11.168ZM62.9273 16.6141C62.9357 16.2564 62.8714 15.9008 62.7381 15.5687C62.6049 15.2366 62.4056 14.9349 62.1522 14.682C61.8988 14.4291 61.5966 14.2302 61.264 14.0974C60.9314 13.9646 60.5753 13.9005 60.2172 13.9092C59.4459 13.8613 58.6867 14.118 58.1032 14.624C57.5197 15.13 57.1586 15.8447 57.0979 16.6141H62.9273ZM66.6664 22.9056C65.9329 23.794 65.0108 24.5084 63.9667 24.9969C62.9227 25.4855 61.783 25.736 60.6301 25.7304C56.216 25.7304 52.6819 22.7876 52.6819 18.2306C52.6819 13.6736 56.2155 10.7322 60.6301 10.7322C64.7559 10.7322 67.3432 13.6713 67.3432 18.2306V19.6129H57.0979C57.2254 20.3969 57.6323 21.1084 58.2437 21.6163C58.855 22.1243 59.6295 22.3944 60.4245 22.3771C61.0528 22.3732 61.6702 22.2124 62.2204 21.9094C62.7705 21.6063 63.2361 21.1707 63.5747 20.6421L66.6664 22.9056ZM76.544 14.5985C74.3369 14.5985 73.0126 16.0704 73.0126 18.215C73.0126 20.3596 74.3364 21.8329 76.544 21.8329C78.7515 21.8329 80.0785 20.3633 80.0785 18.215C80.0785 16.0667 78.7538 14.5985 76.544 14.5985ZM84.1423 25.3616H80.0785V23.4788H80.0183C79.5085 24.1636 78.8472 24.7217 78.086 25.1094C77.3248 25.4972 76.4843 25.7042 75.6299 25.7143C71.3886 25.7143 68.5948 22.6572 68.5948 18.3339C68.5948 14.3634 71.0672 10.7175 75.1314 10.7175C76.9582 10.7175 78.6646 11.2167 79.6656 12.6004H79.7235V4.41636H84.1418L84.1423 25.3616ZM113.942 25.3699H109.528V18.4657C109.528 16.8194 109.498 14.7 107.232 14.7C104.933 14.7 104.581 16.4938 104.581 18.3459V25.3694H100.167V11.1717H104.405V13.112H104.464C104.888 12.3878 105.501 11.792 106.237 11.3882C106.973 10.9843 107.805 10.7874 108.645 10.8186C113.119 10.8186 113.944 13.7577 113.944 17.5812L113.942 25.3699ZM95.1864 9.23098C94.6797 9.23107 94.1844 9.08111 93.7631 8.80006C93.3418 8.51902 93.0135 8.11951 92.8195 7.65206C92.6255 7.1846 92.5747 6.67021 92.6734 6.17391C92.7722 5.67761 93.0161 5.2217 93.3743 4.86384C93.7325 4.50598 94.1888 4.26223 94.6857 4.16342C95.1826 4.06462 95.6976 4.11519 96.1657 4.30875C96.6339 4.5023 97.034 4.83015 97.3155 5.25082C97.5971 5.6715 97.7474 6.16611 97.7475 6.67212C97.7475 7.00809 97.6813 7.34079 97.5527 7.65121C97.424 7.96163 97.2354 8.2437 96.9975 8.48131C96.7597 8.71892 96.4773 8.90742 96.1666 9.03605C95.8558 9.16468 95.5227 9.23091 95.1864 9.23098ZM97.3934 25.3699H92.9747V11.1717H97.3934V25.3699ZM116.142 0.0200935H90.7566C90.1804 0.0135993 89.6252 0.23584 89.213 0.637979C88.8008 1.04012 88.5653 1.58926 88.5583 2.16472V27.6243C88.5651 28.2 88.8004 28.7495 89.2126 29.1521C89.6248 29.5546 90.1801 29.7773 90.7566 29.7712H116.142C116.72 29.7784 117.277 29.5564 117.691 29.1538C118.105 28.7513 118.342 28.2012 118.35 27.6243V2.16289C118.341 1.58628 118.104 1.03652 117.69 0.634386C117.277 0.232257 116.72 0.0106511 116.142 0.0182559M121.74 25.9242C121.203 25.9293 120.69 26.1467 120.312 26.5287C119.935 26.9107 119.725 27.4263 119.728 27.9628C119.73 28.4992 119.946 29.0127 120.326 29.3911C120.707 29.7695 121.222 29.9819 121.759 29.9819C122.296 29.9819 122.812 29.7695 123.192 29.3911C123.573 29.0127 123.788 28.4992 123.791 27.9628C123.793 27.4263 123.583 26.9107 123.206 26.5287C122.829 26.1467 122.316 25.9293 121.779 25.9242H121.74ZM121.74 29.7496C121.387 29.7555 121.041 29.6569 120.745 29.4663C120.449 29.2757 120.216 29.0017 120.076 28.6789C119.936 28.3561 119.894 27.999 119.957 27.6528C120.02 27.3066 120.185 26.9868 120.43 26.7339C120.675 26.481 120.989 26.3063 121.334 26.2319C121.678 26.1575 122.037 26.1868 122.364 26.316C122.692 26.4452 122.974 26.6686 123.174 26.9579C123.375 27.2471 123.485 27.5893 123.491 27.9411C123.491 27.9512 123.491 27.9609 123.491 27.971C123.501 28.4325 123.327 28.8791 123.007 29.2124C122.687 29.5458 122.248 29.7387 121.786 29.7487H121.74" fill="#E8E8E8"/>
<path d="M122.062 28.0817C122.138 28.0824 122.213 28.0677 122.282 28.0383C122.352 28.0089 122.415 27.9655 122.467 27.9109C122.519 27.8563 122.559 27.7915 122.585 27.7206C122.612 27.6497 122.623 27.5743 122.618 27.4989C122.618 27.0856 122.369 26.8881 121.856 26.8881H121.029V29.052H121.34V28.1088H121.723L121.731 28.1202L122.325 29.052H122.658L122.019 28.0876L122.062 28.0817ZM121.702 27.8649H121.341V27.1334H121.799C122.035 27.1334 122.304 27.1719 122.304 27.481C122.304 27.8364 122.032 27.8649 121.7 27.8649M0.790894 4.42096H5.38574V21.1371H13.8922V25.3722H0.790894V4.42096ZM15.9236 11.1666H20.3377V25.3644H15.9236V11.1666ZM18.1306 4.1082C18.6371 4.10829 19.1321 4.25836 19.5531 4.53944C19.9742 4.82051 20.3023 5.21997 20.496 5.6873C20.6898 6.15462 20.7404 6.66883 20.6416 7.16491C20.5427 7.66098 20.2988 8.11663 19.9407 8.47426C19.5826 8.83188 19.1263 9.07541 18.6296 9.17406C18.1329 9.2727 17.618 9.22203 17.1501 9.02844C16.6823 8.83486 16.2824 8.50706 16.001 8.08649C15.7197 7.66593 15.5695 7.17148 15.5695 6.66568C15.5695 6.32979 15.6358 5.99719 15.7645 5.68687C15.8932 5.37655 16.0819 5.0946 16.3197 4.85711C16.5575 4.61962 16.8399 4.43125 17.1506 4.30275C17.4613 4.17425 17.7943 4.10814 18.1306 4.1082ZM38.8026 4.41774H43.2167V16.9388L48.2194 11.1602H53.6314L47.8378 17.7333L53.5095 25.3703H47.9615L43.2756 18.3523H43.2177V25.3694H38.8035L38.8026 4.41774ZM22.7853 11.168H27.0242V13.1083H27.0844C27.5078 12.3838 28.1203 11.7878 28.8565 11.3839C29.5926 10.9799 30.4248 10.7833 31.2641 10.8149C35.7403 10.8149 36.5643 13.7563 36.5643 17.5776V25.3635H32.1501V18.4607C32.1501 16.813 32.1198 14.695 29.8511 14.695C27.5567 14.695 27.2026 16.4892 27.2026 18.3408V25.3616H22.7885L22.7853 11.168ZM62.9273 16.6141C62.9357 16.2564 62.8714 15.9008 62.7381 15.5687C62.6049 15.2366 62.4056 14.9349 62.1522 14.682C61.8988 14.4291 61.5966 14.2302 61.264 14.0974C60.9314 13.9646 60.5753 13.9005 60.2172 13.9092C59.4459 13.8613 58.6867 14.118 58.1032 14.624C57.5197 15.13 57.1586 15.8447 57.0979 16.6141H62.9273ZM66.6664 22.9056C65.9329 23.794 65.0108 24.5084 63.9667 24.9969C62.9227 25.4855 61.783 25.736 60.6301 25.7304C56.216 25.7304 52.6819 22.7876 52.6819 18.2306C52.6819 13.6736 56.2155 10.7322 60.6301 10.7322C64.7559 10.7322 67.3432 13.6713 67.3432 18.2306V19.6129H57.0979C57.2254 20.3969 57.6323 21.1084 58.2437 21.6163C58.855 22.1243 59.6295 22.3944 60.4245 22.3771C61.0528 22.3732 61.6702 22.2124 62.2204 21.9094C62.7705 21.6063 63.2361 21.1707 63.5747 20.6421L66.6664 22.9056ZM76.544 14.5985C74.3369 14.5985 73.0126 16.0704 73.0126 18.215C73.0126 20.3596 74.3364 21.8329 76.544 21.8329C78.7515 21.8329 80.0785 20.3633 80.0785 18.215C80.0785 16.0667 78.7538 14.5985 76.544 14.5985ZM84.1423 25.3616H80.0785V23.4788H80.0183C79.5085 24.1636 78.8472 24.7217 78.086 25.1094C77.3248 25.4972 76.4843 25.7042 75.6299 25.7143C71.3886 25.7143 68.5948 22.6572 68.5948 18.3339C68.5948 14.3634 71.0672 10.7175 75.1314 10.7175C76.9582 10.7175 78.6646 11.2167 79.6656 12.6004H79.7235V4.41636H84.1418L84.1423 25.3616ZM113.942 25.3699H109.528V18.4657C109.528 16.8194 109.498 14.7 107.232 14.7C104.933 14.7 104.581 16.4938 104.581 18.3459V25.3694H100.167V11.1717H104.405V13.112H104.464C104.888 12.3878 105.501 11.792 106.237 11.3882C106.973 10.9843 107.805 10.7874 108.645 10.8186C113.119 10.8186 113.944 13.7577 113.944 17.5812L113.942 25.3699ZM95.1864 9.23098C94.6797 9.23107 94.1844 9.08111 93.7631 8.80006C93.3418 8.51902 93.0135 8.11951 92.8195 7.65206C92.6255 7.1846 92.5747 6.67021 92.6734 6.17391C92.7722 5.67761 93.0161 5.2217 93.3743 4.86384C93.7325 4.50598 94.1888 4.26223 94.6857 4.16342C95.1826 4.06462 95.6976 4.11519 96.1657 4.30875C96.6339 4.5023 97.034 4.83015 97.3155 5.25082C97.5971 5.6715 97.7474 6.16611 97.7475 6.67212C97.7475 7.00809 97.6813 7.34079 97.5527 7.65121C97.424 7.96163 97.2354 8.2437 96.9975 8.48131C96.7597 8.71892 96.4773 8.90742 96.1666 9.03605C95.8558 9.16468 95.5227 9.23091 95.1864 9.23098ZM97.3934 25.3699H92.9747V11.1717H97.3934V25.3699ZM116.142 0.0200935H90.7566C90.1804 0.0135993 89.6252 0.23584 89.213 0.637979C88.8008 1.04012 88.5653 1.58926 88.5583 2.16472V27.6243C88.5651 28.2 88.8004 28.7495 89.2126 29.1521C89.6248 29.5546 90.1801 29.7773 90.7566 29.7712H116.142C116.72 29.7784 117.277 29.5564 117.691 29.1538C118.105 28.7513 118.342 28.2012 118.35 27.6243V2.16289C118.341 1.58628 118.104 1.03652 117.69 0.634386C117.277 0.232257 116.72 0.0106511 116.142 0.0182559M121.74 25.9242C121.203 25.9293 120.69 26.1467 120.312 26.5287C119.935 26.9107 119.725 27.4263 119.728 27.9628C119.73 28.4992 119.946 29.0127 120.326 29.3911C120.707 29.7695 121.222 29.9819 121.759 29.9819C122.296 29.9819 122.812 29.7695 123.192 29.3911C123.573 29.0127 123.788 28.4992 123.791 27.9628C123.793 27.4263 123.583 26.9107 123.206 26.5287C122.829 26.1467 122.316 25.9293 121.779 25.9242H121.74ZM121.74 29.7496C121.387 29.7555 121.041 29.6569 120.745 29.4663C120.449 29.2757 120.216 29.0017 120.076 28.6789C119.936 28.3561 119.894 27.999 119.957 27.6528C120.02 27.3066 120.185 26.9868 120.43 26.7339C120.675 26.481 120.989 26.3063 121.334 26.2319C121.678 26.1575 122.037 26.1868 122.364 26.316C122.692 26.4452 122.974 26.6686 123.174 26.9579C123.375 27.2471 123.485 27.5893 123.491 27.9411C123.491 27.9512 123.491 27.9609 123.491 27.971C123.501 28.4325 123.327 28.8791 123.007 29.2124C122.687 29.5458 122.248 29.7387 121.786 29.7487H121.74" fill="#E8E8E8"/>
<path d="M122.062 28.0817C122.138 28.0824 122.213 28.0677 122.282 28.0383C122.352 28.0089 122.415 27.9655 122.467 27.9109C122.519 27.8563 122.559 27.7915 122.585 27.7206C122.612 27.6497 122.623 27.5743 122.618 27.4989C122.618 27.0856 122.369 26.8881 121.856 26.8881H121.029V29.052H121.34V28.1088H121.723L121.731 28.1202L122.325 29.052H122.658L122.019 28.0876L122.062 28.0817ZM121.702 27.8649H121.341V27.1334H121.799C122.035 27.1334 122.304 27.1719 122.304 27.481C122.304 27.8364 122.032 27.8649 121.7 27.8649M0.790894 4.42096H5.38574V21.1371H13.8922V25.3722H0.790894V4.42096ZM15.9236 11.1666H20.3377V25.3644H15.9236V11.1666ZM18.1306 4.1082C18.6371 4.10829 19.1321 4.25836 19.5531 4.53944C19.9742 4.82051 20.3023 5.21997 20.496 5.6873C20.6898 6.15462 20.7404 6.66883 20.6416 7.16491C20.5427 7.66098 20.2988 8.11663 19.9407 8.47426C19.5826 8.83188 19.1263 9.07541 18.6296 9.17406C18.1329 9.2727 17.618 9.22203 17.1501 9.02844C16.6823 8.83486 16.2824 8.50706 16.001 8.08649C15.7197 7.66593 15.5695 7.17148 15.5695 6.66568C15.5695 6.32979 15.6358 5.99719 15.7645 5.68687C15.8932 5.37655 16.0819 5.0946 16.3197 4.85711C16.5575 4.61962 16.8399 4.43125 17.1506 4.30275C17.4613 4.17425 17.7943 4.10814 18.1306 4.1082ZM38.8026 4.41774H43.2167V16.9388L48.2194 11.1602H53.6314L47.8378 17.7333L53.5095 25.3703H47.9615L43.2756 18.3523H43.2177V25.3694H38.8035L38.8026 4.41774ZM22.7853 11.168H27.0242V13.1083H27.0844C27.5078 12.3838 28.1203 11.7878 28.8565 11.3839C29.5926 10.9799 30.4248 10.7833 31.2641 10.8149C35.7403 10.8149 36.5643 13.7563 36.5643 17.5776V25.3635H32.1501V18.4607C32.1501 16.813 32.1198 14.695 29.8511 14.695C27.5567 14.695 27.2026 16.4892 27.2026 18.3408V25.3616H22.7885L22.7853 11.168ZM62.9273 16.6141C62.9357 16.2564 62.8714 15.9008 62.7381 15.5687C62.6049 15.2366 62.4056 14.9349 62.1522 14.682C61.8988 14.4291 61.5966 14.2302 61.264 14.0974C60.9314 13.9646 60.5753 13.9005 60.2172 13.9092C59.4459 13.8613 58.6867 14.118 58.1032 14.624C57.5197 15.13 57.1586 15.8447 57.0979 16.6141H62.9273ZM66.6664 22.9056C65.9329 23.794 65.0108 24.5084 63.9667 24.9969C62.9227 25.4855 61.783 25.736 60.6301 25.7304C56.216 25.7304 52.6819 22.7876 52.6819 18.2306C52.6819 13.6736 56.2155 10.7322 60.6301 10.7322C64.7559 10.7322 67.3432 13.6713 67.3432 18.2306V19.6129H57.0979C57.2254 20.3969 57.6323 21.1084 58.2437 21.6163C58.855 22.1243 59.6295 22.3944 60.4245 22.3771C61.0528 22.3732 61.6702 22.2124 62.2204 21.9094C62.7705 21.6063 63.2361 21.1707 63.5747 20.6421L66.6664 22.9056ZM76.544 14.5985C74.3369 14.5985 73.0126 16.0704 73.0126 18.215C73.0126 20.3596 74.3364 21.8329 76.544 21.8329C78.7515 21.8329 80.0785 20.3633 80.0785 18.215C80.0785 16.0667 78.7538 14.5985 76.544 14.5985ZM84.1423 25.3616H80.0785V23.4788H80.0183C79.5085 24.1636 78.8472 24.7217 78.086 25.1094C77.3248 25.4972 76.4843 25.7042 75.6299 25.7143C71.3886 25.7143 68.5948 22.6572 68.5948 18.3339C68.5948 14.3634 71.0672 10.7175 75.1314 10.7175C76.9582 10.7175 78.6646 11.2167 79.6656 12.6004H79.7235V4.41636H84.1418L84.1423 25.3616ZM113.942 25.3699H109.528V18.4657C109.528 16.8194 109.498 14.7 107.232 14.7C104.933 14.7 104.581 16.4938 104.581 18.3459V25.3694H100.167V11.1717H104.405V13.112H104.464C104.888 12.3878 105.501 11.792 106.237 11.3882C106.973 10.9843 107.805 10.7874 108.645 10.8186C113.119 10.8186 113.944 13.7577 113.944 17.5812L113.942 25.3699ZM95.1864 9.23098C94.6797 9.23107 94.1844 9.08111 93.7631 8.80006C93.3418 8.51902 93.0135 8.11951 92.8195 7.65206C92.6255 7.1846 92.5747 6.67021 92.6734 6.17391C92.7722 5.67761 93.0161 5.2217 93.3743 4.86384C93.7325 4.50598 94.1888 4.26223 94.6857 4.16342C95.1826 4.06462 95.6976 4.11519 96.1657 4.30875C96.6339 4.5023 97.034 4.83015 97.3155 5.25082C97.5971 5.6715 97.7474 6.16611 97.7475 6.67212C97.7475 7.00809 97.6813 7.34079 97.5527 7.65121C97.424 7.96163 97.2354 8.2437 96.9975 8.48131C96.7597 8.71892 96.4773 8.90742 96.1666 9.03605C95.8558 9.16468 95.5227 9.23091 95.1864 9.23098ZM97.3934 25.3699H92.9747V11.1717H97.3934V25.3699ZM116.142 0.0200935H90.7566C90.1804 0.0135993 89.6252 0.23584 89.213 0.637979C88.8008 1.04012 88.5653 1.58926 88.5583 2.16472V27.6243C88.5651 28.2 88.8004 28.7495 89.2126 29.1521C89.6248 29.5546 90.1801 29.7773 90.7566 29.7712H116.142C116.72 29.7784 117.277 29.5564 117.691 29.1538C118.105 28.7513 118.342 28.2012 118.35 27.6243V2.16289C118.341 1.58628 118.104 1.03652 117.69 0.634386C117.277 0.232257 116.72 0.0106511 116.142 0.0182559M121.74 25.9242C121.203 25.9293 120.69 26.1467 120.312 26.5287C119.935 26.9107 119.725 27.4263 119.728 27.9628C119.73 28.4992 119.946 29.0127 120.326 29.3911C120.707 29.7695 121.222 29.9819 121.759 29.9819C122.296 29.9819 122.812 29.7695 123.192 29.3911C123.573 29.0127 123.788 28.4992 123.791 27.9628C123.793 27.4263 123.583 26.9107 123.206 26.5287C122.829 26.1467 122.316 25.9293 121.779 25.9242H121.74ZM121.74 29.7496C121.387 29.7555 121.041 29.6569 120.745 29.4663C120.449 29.2757 120.216 29.0017 120.076 28.6789C119.936 28.3561 119.894 27.999 119.957 27.6528C120.02 27.3066 120.185 26.9868 120.43 26.7339C120.675 26.481 120.989 26.3063 121.334 26.2319C121.678 26.1575 122.037 26.1868 122.364 26.316C122.692 26.4452 122.974 26.6686 123.174 26.9579C123.375 27.2471 123.485 27.5893 123.491 27.9411C123.491 27.9512 123.491 27.9609 123.491 27.971C123.501 28.4325 123.327 28.8791 123.007 29.2124C122.687 29.5458 122.248 29.7387 121.786 29.7487H121.74" fill="#E8E8E8"/>
<path d="M122.062 28.0817C122.138 28.0824 122.213 28.0677 122.282 28.0383C122.352 28.0089 122.415 27.9655 122.467 27.9109C122.519 27.8563 122.559 27.7915 122.585 27.7206C122.612 27.6497 122.623 27.5743 122.618 27.4989C122.618 27.0856 122.369 26.8881 121.856 26.8881H121.029V29.052H121.34V28.1088H121.723L121.731 28.1202L122.325 29.052H122.658L122.019 28.0876L122.062 28.0817ZM121.702 27.8649H121.341V27.1334H121.799C122.035 27.1334 122.304 27.1719 122.304 27.481C122.304 27.8364 122.032 27.8649 121.7 27.8649M0.790894 4.42096H5.38574V21.1371H13.8922V25.3722H0.790894V4.42096ZM15.9236 11.1666H20.3377V25.3644H15.9236V11.1666ZM18.1306 4.1082C18.6371 4.10829 19.1321 4.25836 19.5531 4.53944C19.9742 4.82051 20.3023 5.21997 20.496 5.6873C20.6898 6.15462 20.7404 6.66883 20.6416 7.16491C20.5427 7.66098 20.2988 8.11663 19.9407 8.47426C19.5826 8.83188 19.1263 9.07541 18.6296 9.17406C18.1329 9.2727 17.618 9.22203 17.1501 9.02844C16.6823 8.83486 16.2824 8.50706 16.001 8.08649C15.7197 7.66593 15.5695 7.17148 15.5695 6.66568C15.5695 6.32979 15.6358 5.99719 15.7645 5.68687C15.8932 5.37655 16.0819 5.0946 16.3197 4.85711C16.5575 4.61962 16.8399 4.43125 17.1506 4.30275C17.4613 4.17425 17.7943 4.10814 18.1306 4.1082ZM38.8026 4.41774H43.2167V16.9388L48.2194 11.1602H53.6314L47.8378 17.7333L53.5095 25.3703H47.9615L43.2756 18.3523H43.2177V25.3694H38.8035L38.8026 4.41774ZM22.7853 11.168H27.0242V13.1083H27.0844C27.5078 12.3838 28.1203 11.7878 28.8565 11.3839C29.5926 10.9799 30.4248 10.7833 31.2641 10.8149C35.7403 10.8149 36.5643 13.7563 36.5643 17.5776V25.3635H32.1501V18.4607C32.1501 16.813 32.1198 14.695 29.8511 14.695C27.5567 14.695 27.2026 16.4892 27.2026 18.3408V25.3616H22.7885L22.7853 11.168ZM62.9273 16.6141C62.9357 16.2564 62.8714 15.9008 62.7381 15.5687C62.6049 15.2366 62.4056 14.9349 62.1522 14.682C61.8988 14.4291 61.5966 14.2302 61.264 14.0974C60.9314 13.9646 60.5753 13.9005 60.2172 13.9092C59.4459 13.8613 58.6867 14.118 58.1032 14.624C57.5197 15.13 57.1586 15.8447 57.0979 16.6141H62.9273ZM66.6664 22.9056C65.9329 23.794 65.0108 24.5084 63.9667 24.9969C62.9227 25.4855 61.783 25.736 60.6301 25.7304C56.216 25.7304 52.6819 22.7876 52.6819 18.2306C52.6819 13.6736 56.2155 10.7322 60.6301 10.7322C64.7559 10.7322 67.3432 13.6713 67.3432 18.2306V19.6129H57.0979C57.2254 20.3969 57.6323 21.1084 58.2437 21.6163C58.855 22.1243 59.6295 22.3944 60.4245 22.3771C61.0528 22.3732 61.6702 22.2124 62.2204 21.9094C62.7705 21.6063 63.2361 21.1707 63.5747 20.6421L66.6664 22.9056ZM76.544 14.5985C74.3369 14.5985 73.0126 16.0704 73.0126 18.215C73.0126 20.3596 74.3364 21.8329 76.544 21.8329C78.7515 21.8329 80.0785 20.3633 80.0785 18.215C80.0785 16.0667 78.7538 14.5985 76.544 14.5985ZM84.1423 25.3616H80.0785V23.4788H80.0183C79.5085 24.1636 78.8472 24.7217 78.086 25.1094C77.3248 25.4972 76.4843 25.7042 75.6299 25.7143C71.3886 25.7143 68.5948 22.6572 68.5948 18.3339C68.5948 14.3634 71.0672 10.7175 75.1314 10.7175C76.9582 10.7175 78.6646 11.2167 79.6656 12.6004H79.7235V4.41636H84.1418L84.1423 25.3616ZM113.942 25.3699H109.528V18.4657C109.528 16.8194 109.498 14.7 107.232 14.7C104.933 14.7 104.581 16.4938 104.581 18.3459V25.3694H100.167V11.1717H104.405V13.112H104.464C104.888 12.3878 105.501 11.792 106.237 11.3882C106.973 10.9843 107.805 10.7874 108.645 10.8186C113.119 10.8186 113.944 13.7577 113.944 17.5812L113.942 25.3699ZM95.1864 9.23098C94.6797 9.23107 94.1844 9.08111 93.7631 8.80006C93.3418 8.51902 93.0135 8.11951 92.8195 7.65206C92.6255 7.1846 92.5747 6.67021 92.6734 6.17391C92.7722 5.67761 93.0161 5.2217 93.3743 4.86384C93.7325 4.50598 94.1888 4.26223 94.6857 4.16342C95.1826 4.06462 95.6976 4.11519 96.1657 4.30875C96.6339 4.5023 97.034 4.83015 97.3155 5.25082C97.5971 5.6715 97.7474 6.16611 97.7475 6.67212C97.7475 7.00809 97.6813 7.34079 97.5527 7.65121C97.424 7.96163 97.2354 8.2437 96.9975 8.48131C96.7597 8.71892 96.4773 8.90742 96.1666 9.03605C95.8558 9.16468 95.5227 9.23091 95.1864 9.23098ZM97.3934 25.3699H92.9747V11.1717H97.3934V25.3699ZM116.142 0.0200935H90.7566C90.1804 0.0135993 89.6252 0.23584 89.213 0.637979C88.8008 1.04012 88.5653 1.58926 88.5583 2.16472V27.6243C88.5651 28.2 88.8004 28.7495 89.2126 29.1521C89.6248 29.5546 90.1801 29.7773 90.7566 29.7712H116.142C116.72 29.7784 117.277 29.5564 117.691 29.1538C118.105 28.7513 118.342 28.2012 118.35 27.6243V2.16289C118.341 1.58628 118.104 1.03652 117.69 0.634386C117.277 0.232257 116.72 0.0106511 116.142 0.0182559M121.74 25.9242C121.203 25.9293 120.69 26.1467 120.312 26.5287C119.935 26.9107 119.725 27.4263 119.728 27.9628C119.73 28.4992 119.946 29.0127 120.326 29.3911C120.707 29.7695 121.222 29.9819 121.759 29.9819C122.296 29.9819 122.812 29.7695 123.192 29.3911C123.573 29.0127 123.788 28.4992 123.791 27.9628C123.793 27.4263 123.583 26.9107 123.206 26.5287C122.829 26.1467 122.316 25.9293 121.779 25.9242H121.74ZM121.74 29.7496C121.387 29.7555 121.041 29.6569 120.745 29.4663C120.449 29.2757 120.216 29.0017 120.076 28.6789C119.936 28.3561 119.894 27.999 119.957 27.6528C120.02 27.3066 120.185 26.9868 120.43 26.7339C120.675 26.481 120.989 26.3063 121.334 26.2319C121.678 26.1575 122.037 26.1868 122.364 26.316C122.692 26.4452 122.974 26.6686 123.174 26.9579C123.375 27.2471 123.485 27.5893 123.491 27.9411C123.491 27.9512 123.491 27.9609 123.491 27.971C123.501 28.4325 123.327 28.8791 123.007 29.2124C122.687 29.5458 122.248 29.7387 121.786 29.7487H121.74" fill="#E8E8E8"/>
</svg>
