<svg width="123" height="30" viewBox="0 0 123 30" fill="none" xmlns="http://www.w3.org/2000/svg">
<path fill-rule="evenodd" clip-rule="evenodd" d="M121.494 20.7748C121.113 20.4993 120.811 20.4599 120.562 20.9848C116.284 30.2355 109.081 25.6167 109.802 26.0235C111.403 25.2887 115.602 21.9295 114.972 17.2713C114.592 14.4239 112.151 13.1642 109.553 13.6235C105.026 14.4108 103.373 19.2921 104.212 23.6091C104.357 24.3571 104.619 24.9607 104.895 25.5643C99.7905 29.7238 97.7568 21.8508 97.5204 20.906C97.5075 20.8535 101.47 17.56 102.572 9.70011C103.727 1.47279 101.103 -0.0362034 98.4129 0.0162834C93.4398 0.108135 92.1012 10.4874 93.8988 19.1346C93.7545 19.174 93.0459 19.5676 91.9176 19.607C91.104 17.0483 87.6267 14.8045 86.7213 15.6705C84.4512 17.8356 87.2724 22.0607 89.2671 22.3888C88.0728 29.7501 80.5935 27.9262 81.9843 18.7016C84.4119 14.1877 86.2752 7.45629 85.9341 3.40167C85.8159 1.97142 84.753 0.0425268 82.3518 0.134379C77.733 0.318084 77.2344 10.6973 77.7723 18.0718C77.7462 17.888 77.4837 18.964 75.594 19.502C75.1479 17.022 71.1459 14.5158 70.2012 15.723C68.4429 17.9668 71.5002 21.9689 72.9435 22.2445C71.7495 29.6057 64.2702 27.7818 65.661 18.5573C68.1018 14.0434 69.9519 7.32507 69.6237 3.27048C69.5058 1.8402 68.4429 -0.0886902 66.0414 0.0031617C61.4226 0.186866 60.924 10.5661 61.4622 17.9405C61.4358 17.7568 61.1733 18.8722 59.205 19.397C59.1396 16.1691 55.1244 14.6995 54.1533 15.723C52.4343 17.56 54.5469 21.3259 56.502 22.2445C55.308 29.6057 47.8287 27.7818 49.2195 18.5573C51.6471 14.0434 53.5104 7.31196 53.1693 3.25734C53.0643 1.8402 52.0014 -0.0886902 49.5999 0.0031617C44.9811 0.186866 44.6139 11.091 45.1518 18.4654C43.6296 24.9869 38.5254 33.1224 39.1944 16.8121C39.2601 15.6705 39.3258 15.2375 38.7615 14.8045C38.3286 14.4764 37.3575 14.6339 36.8325 14.647C36.1896 14.6732 36.0192 15.0538 35.8878 15.618C35.5599 17.0876 35.4942 18.5179 35.4417 20.473C35.4156 21.3915 35.3367 21.8114 34.9824 23.058C34.6281 24.3046 32.6337 26.5746 31.5315 26.1941C30.0093 25.6692 30.5079 21.3784 30.7965 18.426C31.0329 16.0904 30.2718 15.0538 28.3297 14.6732C27.1882 14.4371 26.4927 14.4764 25.3118 14.0959C24.1833 13.7416 23.934 11.6159 21.5458 12.3245C20.2337 12.7181 21.0735 15.4868 20.7585 17.5469C19.2102 27.6637 15.9954 27.9393 14.4995 23.0318C21.2178 6.55089 16.4284 0.0556485 13.6334 0.0556485C10.7204 0.0556485 7.38752 2.06327 8.79152 14.9225C8.1092 14.7257 7.89926 14.6207 7.13819 14.6207C2.89989 14.6076 -7.62939e-06 18.0455 -7.62939e-06 22.2838C-7.62939e-06 26.5221 2.89989 29.96 7.15133 29.96C9.65756 29.96 11.4159 28.8184 12.7543 27.0601C13.6203 28.3067 14.6832 29.9863 16.6252 29.9075C22.3987 29.6845 24.0783 17.8356 24.2752 17.1664C24.8919 17.2582 25.4824 17.4419 26.0466 17.5338C26.9914 17.6781 27.0701 18.0586 27.0438 19.0034C26.7945 27.0601 28.2773 29.8813 31.6497 29.8813C33.5259 29.8813 35.2056 28.0311 36.3603 26.719C37.2264 28.5035 38.5908 29.8288 40.4412 29.8813C44.9025 29.9863 46.6215 22.8743 46.464 23.8059C46.3458 24.5408 47.9073 29.8288 52.5132 29.855C58.2078 29.8813 59.2707 23.6222 59.3889 22.5725C59.4021 22.3625 59.415 22.3888 59.3889 22.5725C59.3889 22.5856 59.3889 22.6119 59.3889 22.6381C61.1997 22.2969 62.1312 21.3391 62.1312 21.3391C62.1312 21.3391 63.5877 29.96 68.9547 29.8682C74.5314 29.7632 75.594 24.1077 75.7254 23.0055C75.7386 22.7431 75.7515 22.7693 75.7254 23.0055C75.7254 23.0186 75.7254 23.0318 75.7254 23.0318C77.8773 22.2445 78.4416 21.4703 78.4416 21.4703C78.4416 21.4703 79.5963 29.9207 85.2648 29.9994C90.3168 30.0651 92.193 24.8819 92.2062 22.7168C93.0591 22.73 94.6338 22.2051 94.5945 22.1789C94.5945 22.1789 96.4446 29.5664 101.614 29.9469C104.042 30.1305 105.866 28.5822 106.903 27.8737C109.343 29.855 117.466 32.3745 122.596 23.6747C123.331 22.4413 121.769 20.9585 121.494 20.7748ZM6.94136 27.0864C4.46138 27.0864 2.87365 24.7901 2.87365 22.3232C2.87365 19.8563 4.33016 17.56 6.81017 17.56C7.92551 17.56 8.54222 17.6781 9.42137 18.4392C9.57884 19.0559 10.025 20.4862 10.2481 21.1422C10.5367 22.0083 10.891 22.7562 11.2322 23.5566C10.7204 25.6298 9.09332 27.0864 6.94136 27.0864ZM12.9774 18.5048C12.8724 18.3342 12.8986 18.4392 12.7805 18.2817C12.3344 17.0483 11.4553 14.2927 11.3503 11.1566C11.2322 7.61376 11.8227 3.45417 13.5678 3.45417C14.7488 3.45417 16.0085 11.8783 12.9774 18.5048ZM47.8941 14.8176C47.6187 12.7181 47.6055 3.33609 49.8495 3.5985C51.096 4.09713 49.062 12.9412 47.8941 14.8176ZM64.3356 14.8176C64.0602 12.7181 64.047 3.33609 66.291 3.5985C67.5375 4.09713 65.5035 12.9412 64.3356 14.8176ZM80.646 14.9488C80.3703 12.8493 80.3574 3.46728 82.6011 3.72972C83.8476 4.21524 81.8139 13.0724 80.646 14.9488ZM98.649 3.03429C100.709 2.82433 100.617 11.8127 96.4971 17.4813C95.9589 15.4343 95.1456 3.74286 98.649 3.03429ZM107.309 22.3888C106.653 19.0428 108.359 16.8514 110.117 16.6152C110.734 16.5234 111.626 16.917 111.797 17.665C112.086 19.069 111.757 21.1553 107.808 23.7928C107.821 23.8059 107.454 23.1236 107.309 22.3888ZM37.515 12.0751C38.919 12.0751 40.0605 10.9335 40.0605 9.52953C40.0605 8.1255 38.919 6.98391 37.515 6.98391C36.111 6.98391 34.9692 8.1255 34.9692 9.52953C34.9692 10.9335 36.111 12.0751 37.515 12.0751Z" fill="#E8E8E8"/>
</svg>
